G75*
G70*
%OFA0B0*%
%FSLAX24Y24*%
%IPPOS*%
%LPD*%
%AMOC8*
5,1,8,0,0,1.08239X$1,22.5*
%
%ADD10C,0.0600*%
%ADD11C,0.0520*%
%ADD12C,0.0560*%
%ADD13C,0.0827*%
%ADD14R,0.0460X0.0630*%
%ADD15C,0.0240*%
%ADD16C,0.0475*%
%ADD17C,0.0560*%
%ADD18C,0.1000*%
%ADD19C,0.0160*%
%ADD20C,0.0200*%
D10*
X004200Y003950D02*
X004800Y003950D01*
X004800Y004950D02*
X004200Y004950D01*
X004200Y010200D02*
X004800Y010200D01*
X004800Y011200D02*
X004200Y011200D01*
X004200Y012200D02*
X004800Y012200D01*
X004800Y013200D02*
X004200Y013200D01*
D11*
X014830Y014890D03*
X016730Y014890D03*
D12*
X019000Y014025D03*
X019787Y014025D03*
X019787Y013237D03*
X019000Y013237D03*
X019000Y012450D03*
X019787Y012450D03*
X021580Y009210D03*
X020000Y007950D03*
X020000Y007163D03*
X020000Y006375D03*
X015080Y004820D03*
X014293Y004820D03*
X013505Y004820D03*
X012718Y004820D03*
X011510Y005808D03*
X011510Y006595D03*
X011510Y007383D03*
X011510Y008170D03*
X009750Y008750D03*
X008963Y008750D03*
X012470Y010290D03*
X012500Y012200D03*
X012500Y012987D03*
X012750Y014950D03*
X011963Y014950D03*
D13*
X027727Y014894D02*
X028553Y014894D01*
X029990Y014323D02*
X029990Y013497D01*
X028553Y012926D02*
X027727Y012926D01*
X027727Y011941D02*
X028553Y011941D01*
X028553Y015879D02*
X027727Y015879D01*
D14*
X013850Y002950D03*
X013250Y002950D03*
D15*
X003270Y002710D02*
X003270Y014867D01*
X003560Y014747D01*
X003940Y014747D01*
X004290Y014892D01*
X004558Y015160D01*
X004703Y015510D01*
X004703Y015890D01*
X004583Y016180D01*
X020890Y016180D01*
X020890Y010544D01*
X020796Y010505D01*
X020695Y010404D01*
X020640Y010272D01*
X020640Y008910D01*
X017928Y008910D01*
X017796Y008855D01*
X017695Y008754D01*
X017640Y008622D01*
X017640Y007810D01*
X015828Y007810D01*
X015696Y007755D01*
X015595Y007654D01*
X015540Y007522D01*
X015540Y005152D01*
X015397Y005295D01*
X015191Y005380D01*
X014969Y005380D01*
X014763Y005295D01*
X014686Y005218D01*
X014610Y005295D01*
X014404Y005380D01*
X014181Y005380D01*
X013975Y005295D01*
X013899Y005218D01*
X013822Y005295D01*
X013617Y005380D01*
X013394Y005380D01*
X013188Y005295D01*
X013111Y005218D01*
X013035Y005295D01*
X012829Y005380D01*
X012606Y005380D01*
X012401Y005295D01*
X012243Y005137D01*
X012158Y004931D01*
X012158Y004709D01*
X012243Y004503D01*
X012401Y004345D01*
X012606Y004260D01*
X012829Y004260D01*
X013035Y004345D01*
X013111Y004422D01*
X013188Y004345D01*
X013394Y004260D01*
X013617Y004260D01*
X013822Y004345D01*
X013899Y004422D01*
X013975Y004345D01*
X014181Y004260D01*
X014404Y004260D01*
X014610Y004345D01*
X014686Y004422D01*
X014763Y004345D01*
X014969Y004260D01*
X015191Y004260D01*
X015397Y004345D01*
X015540Y004488D01*
X015540Y003580D01*
X013924Y003580D01*
X013840Y003545D01*
X013564Y003545D01*
X013461Y003502D01*
X013444Y003485D01*
X013250Y003485D01*
X013250Y002950D01*
X013250Y002950D01*
X013250Y002950D01*
X012800Y002950D01*
X012800Y003294D01*
X012815Y003350D01*
X012844Y003400D01*
X012885Y003441D01*
X012935Y003470D01*
X012991Y003485D01*
X013250Y003485D01*
X013250Y002950D01*
X012800Y002950D01*
X012800Y002710D01*
X003270Y002710D01*
X003270Y002916D02*
X012800Y002916D01*
X012800Y003154D02*
X003270Y003154D01*
X003270Y003393D02*
X012840Y003393D01*
X013250Y003393D02*
X013250Y003393D01*
X013250Y003154D02*
X013250Y003154D01*
X013187Y004347D02*
X013036Y004347D01*
X012399Y004347D02*
X005139Y004347D01*
X005073Y004395D01*
X005029Y004417D01*
X005129Y004458D01*
X005292Y004621D01*
X005380Y004835D01*
X005380Y005065D01*
X005292Y005279D01*
X005129Y005442D01*
X004915Y005530D01*
X004085Y005530D01*
X003871Y005442D01*
X003708Y005279D01*
X003620Y005065D01*
X003620Y004835D01*
X003708Y004621D01*
X003871Y004458D01*
X003971Y004417D01*
X003927Y004395D01*
X003861Y004347D01*
X003803Y004289D01*
X003755Y004223D01*
X003718Y004150D01*
X003693Y004072D01*
X003680Y003991D01*
X003680Y003950D01*
X004500Y003950D01*
X005320Y003950D01*
X005320Y003991D01*
X005307Y004072D01*
X005282Y004150D01*
X005245Y004223D01*
X005197Y004289D01*
X005139Y004347D01*
X005255Y004585D02*
X012209Y004585D01*
X012158Y004824D02*
X005375Y004824D01*
X005380Y005062D02*
X012212Y005062D01*
X012414Y005301D02*
X011749Y005301D01*
X011827Y005333D02*
X011621Y005248D01*
X011399Y005248D01*
X011193Y005333D01*
X011035Y005491D01*
X010950Y005696D01*
X010950Y005919D01*
X011035Y006125D01*
X011112Y006201D01*
X011035Y006278D01*
X010950Y006484D01*
X010950Y006707D01*
X011035Y006912D01*
X011112Y006989D01*
X011035Y007065D01*
X010950Y007271D01*
X010950Y007494D01*
X011035Y007700D01*
X011112Y007776D01*
X011035Y007853D01*
X010950Y008059D01*
X010950Y008281D01*
X011035Y008487D01*
X011193Y008645D01*
X011399Y008730D01*
X011621Y008730D01*
X011827Y008645D01*
X011985Y008487D01*
X012070Y008281D01*
X012070Y008059D01*
X011985Y007853D01*
X011908Y007776D01*
X011985Y007700D01*
X012070Y007494D01*
X012070Y007271D01*
X011985Y007065D01*
X011908Y006989D01*
X011985Y006912D01*
X012070Y006707D01*
X012070Y006484D01*
X011985Y006278D01*
X011908Y006201D01*
X011985Y006125D01*
X012070Y005919D01*
X012070Y005696D01*
X011985Y005491D01*
X011827Y005333D01*
X012005Y005539D02*
X015540Y005539D01*
X015540Y005301D02*
X015383Y005301D01*
X014777Y005301D02*
X014596Y005301D01*
X013989Y005301D02*
X013809Y005301D01*
X013202Y005301D02*
X013021Y005301D01*
X012070Y005778D02*
X015540Y005778D01*
X015540Y006016D02*
X012030Y006016D01*
X011961Y006255D02*
X015540Y006255D01*
X015540Y006493D02*
X012070Y006493D01*
X012060Y006732D02*
X015540Y006732D01*
X015540Y006970D02*
X011927Y006970D01*
X012044Y007209D02*
X015540Y007209D01*
X015540Y007447D02*
X012070Y007447D01*
X011991Y007686D02*
X015626Y007686D01*
X017640Y007924D02*
X012014Y007924D01*
X012070Y008163D02*
X017640Y008163D01*
X017640Y008401D02*
X012020Y008401D01*
X011832Y008640D02*
X017647Y008640D01*
X017851Y008878D02*
X010303Y008878D01*
X010310Y008861D02*
X010225Y009067D01*
X010067Y009225D01*
X009861Y009310D01*
X009639Y009310D01*
X009433Y009225D01*
X009314Y009106D01*
X009288Y009131D01*
X009225Y009178D01*
X009155Y009213D01*
X009080Y009238D01*
X009002Y009250D01*
X008963Y009250D01*
X008963Y008750D01*
X008963Y008750D01*
X008963Y008250D01*
X009002Y008250D01*
X009080Y008262D01*
X009155Y008287D01*
X009225Y008322D01*
X009288Y008369D01*
X009314Y008394D01*
X009433Y008275D01*
X009639Y008190D01*
X009861Y008190D01*
X010067Y008275D01*
X010225Y008433D01*
X010310Y008639D01*
X010310Y008861D01*
X010310Y008640D02*
X011188Y008640D01*
X011000Y008401D02*
X010193Y008401D01*
X010950Y008163D02*
X003270Y008163D01*
X003270Y008401D02*
X008604Y008401D01*
X008581Y008424D02*
X008637Y008369D01*
X008701Y008322D01*
X008771Y008287D01*
X008846Y008262D01*
X008923Y008250D01*
X008963Y008250D01*
X008963Y008750D01*
X008963Y008750D01*
X008963Y009250D01*
X008923Y009250D01*
X008846Y009238D01*
X008771Y009213D01*
X008701Y009178D01*
X008637Y009131D01*
X008581Y009076D01*
X008535Y009012D01*
X008499Y008942D01*
X008475Y008867D01*
X008463Y008789D01*
X008463Y008750D01*
X008463Y008711D01*
X008475Y008633D01*
X008499Y008558D01*
X008535Y008488D01*
X008581Y008424D01*
X008474Y008640D02*
X003270Y008640D01*
X003270Y008878D02*
X008478Y008878D01*
X008463Y008750D02*
X008963Y008750D01*
X008463Y008750D01*
X008622Y009117D02*
X003270Y009117D01*
X003270Y009355D02*
X020640Y009355D01*
X020640Y009594D02*
X003270Y009594D01*
X003270Y009832D02*
X003748Y009832D01*
X003708Y009871D02*
X003871Y009708D01*
X004085Y009620D01*
X004915Y009620D01*
X005129Y009708D01*
X005292Y009871D01*
X005380Y010085D01*
X005380Y010315D01*
X005292Y010529D01*
X005129Y010692D01*
X005109Y010700D01*
X005129Y010708D01*
X005292Y010871D01*
X005380Y011085D01*
X005380Y011315D01*
X005292Y011529D01*
X005129Y011692D01*
X005109Y011700D01*
X005129Y011708D01*
X005292Y011871D01*
X005380Y012085D01*
X005380Y012315D01*
X005292Y012529D01*
X005129Y012692D01*
X005109Y012700D01*
X005129Y012708D01*
X005292Y012871D01*
X005380Y013085D01*
X005380Y013315D01*
X005292Y013529D01*
X005129Y013692D01*
X004915Y013780D01*
X004085Y013780D01*
X003871Y013692D01*
X003708Y013529D01*
X003620Y013315D01*
X003620Y013085D01*
X003708Y012871D01*
X003871Y012708D01*
X003891Y012700D01*
X003871Y012692D01*
X003708Y012529D01*
X003620Y012315D01*
X003620Y012085D01*
X003708Y011871D01*
X003871Y011708D01*
X003891Y011700D01*
X003871Y011692D01*
X003708Y011529D01*
X003620Y011315D01*
X003620Y011085D01*
X003708Y010871D01*
X003871Y010708D01*
X003891Y010700D01*
X003871Y010692D01*
X003708Y010529D01*
X003620Y010315D01*
X003620Y010085D01*
X003708Y009871D01*
X003626Y010071D02*
X003270Y010071D01*
X003270Y010309D02*
X003620Y010309D01*
X003727Y010548D02*
X003270Y010548D01*
X003270Y010786D02*
X003794Y010786D01*
X003645Y011025D02*
X003270Y011025D01*
X003270Y011263D02*
X003620Y011263D01*
X003697Y011502D02*
X003270Y011502D01*
X003270Y011740D02*
X003840Y011740D01*
X003664Y011979D02*
X003270Y011979D01*
X003270Y012217D02*
X003620Y012217D01*
X003678Y012456D02*
X003270Y012456D01*
X003270Y012694D02*
X003877Y012694D01*
X003683Y012933D02*
X003270Y012933D01*
X003270Y013171D02*
X003620Y013171D01*
X003659Y013410D02*
X003270Y013410D01*
X003270Y013648D02*
X003828Y013648D01*
X003270Y013887D02*
X018451Y013887D01*
X018440Y013913D02*
X018525Y013708D01*
X018602Y013631D01*
X018525Y013555D01*
X018440Y013349D01*
X018440Y013126D01*
X018525Y012920D01*
X018602Y012844D01*
X018525Y012767D01*
X018440Y012561D01*
X018440Y012339D01*
X018525Y012133D01*
X018683Y011975D01*
X018889Y011890D01*
X019111Y011890D01*
X019317Y011975D01*
X019394Y012052D01*
X019470Y011975D01*
X019676Y011890D01*
X019681Y011890D01*
X019634Y011843D01*
X018872Y011843D01*
X018793Y011922D01*
X018603Y012001D01*
X018397Y012001D01*
X018207Y011922D01*
X018061Y011777D01*
X017983Y011586D01*
X017983Y011381D01*
X018061Y011190D01*
X018207Y011045D01*
X018397Y010966D01*
X018603Y010966D01*
X018793Y011045D01*
X018872Y011123D01*
X019855Y011123D01*
X019987Y011178D01*
X020704Y011895D01*
X020805Y011996D01*
X020860Y012128D01*
X020860Y012596D01*
X020805Y012729D01*
X020347Y013187D01*
X020347Y013349D01*
X020262Y013555D01*
X020143Y013674D01*
X020169Y013699D01*
X020215Y013763D01*
X020251Y013833D01*
X020275Y013908D01*
X020287Y013985D01*
X020287Y014025D01*
X020287Y014064D01*
X020275Y014142D01*
X020251Y014217D01*
X020215Y014287D01*
X020169Y014351D01*
X020113Y014406D01*
X020049Y014452D01*
X019979Y014488D01*
X019904Y014512D01*
X019827Y014525D01*
X019787Y014525D01*
X019748Y014525D01*
X019670Y014512D01*
X019595Y014488D01*
X019525Y014452D01*
X019462Y014406D01*
X019436Y014381D01*
X019317Y014500D01*
X019111Y014585D01*
X018889Y014585D01*
X018683Y014500D01*
X018525Y014342D01*
X018440Y014136D01*
X018440Y013913D01*
X018440Y014125D02*
X003270Y014125D01*
X003270Y014364D02*
X014690Y014364D01*
X014723Y014350D02*
X014937Y014350D01*
X015136Y014432D01*
X015288Y014584D01*
X015370Y014783D01*
X015370Y014997D01*
X015288Y015196D01*
X015136Y015348D01*
X014937Y015430D01*
X014723Y015430D01*
X014524Y015348D01*
X014372Y015196D01*
X014290Y014997D01*
X014290Y014783D01*
X014372Y014584D01*
X014524Y014432D01*
X014723Y014350D01*
X014970Y014364D02*
X016590Y014364D01*
X016623Y014350D02*
X016837Y014350D01*
X017036Y014432D01*
X017188Y014584D01*
X017270Y014783D01*
X017270Y014997D01*
X017188Y015196D01*
X017036Y015348D01*
X016837Y015430D01*
X016623Y015430D01*
X016424Y015348D01*
X016272Y015196D01*
X016190Y014997D01*
X016190Y014783D01*
X016272Y014584D01*
X016424Y014432D01*
X016623Y014350D01*
X016870Y014364D02*
X018547Y014364D01*
X018585Y013648D02*
X005172Y013648D01*
X005341Y013410D02*
X012130Y013410D01*
X012183Y013462D02*
X012025Y013305D01*
X011940Y013099D01*
X011940Y012876D01*
X012025Y012670D01*
X012102Y012594D01*
X012025Y012517D01*
X011940Y012311D01*
X011940Y012089D01*
X012025Y011883D01*
X012183Y011725D01*
X012389Y011640D01*
X012611Y011640D01*
X012817Y011725D01*
X012975Y011883D01*
X013060Y012089D01*
X013060Y012311D01*
X012975Y012517D01*
X012898Y012594D01*
X012975Y012670D01*
X013060Y012876D01*
X013060Y013099D01*
X012975Y013305D01*
X012817Y013462D01*
X012611Y013547D01*
X012389Y013547D01*
X012183Y013462D01*
X011970Y013171D02*
X005380Y013171D01*
X005317Y012933D02*
X011940Y012933D01*
X012015Y012694D02*
X005123Y012694D01*
X005322Y012456D02*
X012000Y012456D01*
X011940Y012217D02*
X005380Y012217D01*
X005336Y011979D02*
X011986Y011979D01*
X012168Y011740D02*
X005160Y011740D01*
X005303Y011502D02*
X017983Y011502D01*
X018046Y011740D02*
X012832Y011740D01*
X013014Y011979D02*
X018343Y011979D01*
X018657Y011979D02*
X018680Y011979D01*
X018490Y012217D02*
X013060Y012217D01*
X013000Y012456D02*
X018440Y012456D01*
X018495Y012694D02*
X012985Y012694D01*
X013060Y012933D02*
X018520Y012933D01*
X018440Y013171D02*
X013030Y013171D01*
X012870Y013410D02*
X018465Y013410D01*
X019787Y014025D02*
X019787Y014525D01*
X019787Y014025D01*
X019787Y014025D01*
X020287Y014025D01*
X019787Y014025D01*
X019787Y014025D01*
X019787Y014125D02*
X019787Y014125D01*
X020278Y014125D02*
X020890Y014125D01*
X020890Y013887D02*
X020268Y013887D01*
X020169Y013648D02*
X020890Y013648D01*
X020890Y013410D02*
X020322Y013410D01*
X020363Y013171D02*
X020890Y013171D01*
X020890Y012933D02*
X020601Y012933D01*
X020820Y012694D02*
X020890Y012694D01*
X020890Y012456D02*
X020860Y012456D01*
X020860Y012217D02*
X020890Y012217D01*
X020890Y011979D02*
X020788Y011979D01*
X020890Y011740D02*
X020549Y011740D01*
X020311Y011502D02*
X020890Y011502D01*
X020890Y011263D02*
X020072Y011263D01*
X020890Y011025D02*
X018744Y011025D01*
X018256Y011025D02*
X005355Y011025D01*
X005380Y011263D02*
X018031Y011263D01*
X019320Y011979D02*
X019467Y011979D01*
X020890Y010786D02*
X012736Y010786D01*
X012787Y010765D02*
X012581Y010850D01*
X012359Y010850D01*
X012153Y010765D01*
X011995Y010607D01*
X011910Y010401D01*
X011910Y010179D01*
X011995Y009973D01*
X012153Y009815D01*
X012359Y009730D01*
X012581Y009730D01*
X012787Y009815D01*
X012945Y009973D01*
X013030Y010179D01*
X013030Y010401D01*
X012945Y010607D01*
X012787Y010765D01*
X012204Y010786D02*
X005206Y010786D01*
X005273Y010548D02*
X011971Y010548D01*
X011910Y010309D02*
X005380Y010309D01*
X005374Y010071D02*
X011955Y010071D01*
X012136Y009832D02*
X005252Y009832D01*
X003270Y007924D02*
X011006Y007924D01*
X011029Y007686D02*
X003270Y007686D01*
X003270Y007447D02*
X010950Y007447D01*
X010976Y007209D02*
X003270Y007209D01*
X003270Y006970D02*
X011093Y006970D01*
X010960Y006732D02*
X003270Y006732D01*
X003270Y006493D02*
X010950Y006493D01*
X011059Y006255D02*
X003270Y006255D01*
X003270Y006016D02*
X010990Y006016D01*
X010950Y005778D02*
X003270Y005778D01*
X003270Y005539D02*
X011015Y005539D01*
X011271Y005301D02*
X005270Y005301D01*
X003730Y005301D02*
X003270Y005301D01*
X003270Y005062D02*
X003620Y005062D01*
X003625Y004824D02*
X003270Y004824D01*
X003270Y004585D02*
X003745Y004585D01*
X003861Y004347D02*
X003270Y004347D01*
X003270Y004108D02*
X003705Y004108D01*
X003680Y003950D02*
X003680Y003909D01*
X003693Y003828D01*
X003718Y003750D01*
X003755Y003677D01*
X003803Y003611D01*
X003861Y003553D01*
X003927Y003505D01*
X004000Y003468D01*
X004078Y003443D01*
X004159Y003430D01*
X004500Y003430D01*
X004841Y003430D01*
X004922Y003443D01*
X005000Y003468D01*
X005073Y003505D01*
X005139Y003553D01*
X005197Y003611D01*
X005245Y003677D01*
X005282Y003750D01*
X005307Y003828D01*
X005320Y003909D01*
X005320Y003950D01*
X004500Y003950D01*
X004500Y003950D01*
X004500Y003430D01*
X004500Y003950D01*
X004500Y003950D01*
X004500Y003950D01*
X003680Y003950D01*
X003686Y003870D02*
X003270Y003870D01*
X003270Y003631D02*
X003789Y003631D01*
X004500Y003631D02*
X004500Y003631D01*
X004500Y003870D02*
X004500Y003870D01*
X005211Y003631D02*
X015540Y003631D01*
X015540Y003870D02*
X005314Y003870D01*
X005295Y004108D02*
X015540Y004108D01*
X015540Y004347D02*
X015398Y004347D01*
X014762Y004347D02*
X014611Y004347D01*
X013974Y004347D02*
X013824Y004347D01*
X008963Y008401D02*
X008963Y008401D01*
X008963Y008640D02*
X008963Y008640D01*
X008963Y008750D02*
X008963Y008750D01*
X008963Y008878D02*
X008963Y008878D01*
X008963Y009117D02*
X008963Y009117D01*
X009303Y009117D02*
X009325Y009117D01*
X010175Y009117D02*
X020640Y009117D01*
X020640Y009832D02*
X012804Y009832D01*
X012985Y010071D02*
X020640Y010071D01*
X020655Y010309D02*
X013030Y010309D01*
X012969Y010548D02*
X020890Y010548D01*
X020890Y014364D02*
X020156Y014364D01*
X019787Y014364D02*
X019787Y014364D01*
X020890Y014602D02*
X017195Y014602D01*
X017270Y014841D02*
X020890Y014841D01*
X020890Y015079D02*
X017236Y015079D01*
X017066Y015318D02*
X020890Y015318D01*
X020890Y015556D02*
X004703Y015556D01*
X004623Y015318D02*
X011538Y015318D01*
X011488Y015267D02*
X011403Y015061D01*
X011403Y014839D01*
X011488Y014633D01*
X011645Y014475D01*
X011851Y014390D01*
X012074Y014390D01*
X012280Y014475D01*
X012356Y014552D01*
X012433Y014475D01*
X012639Y014390D01*
X012861Y014390D01*
X013067Y014475D01*
X013225Y014633D01*
X013310Y014839D01*
X013310Y015061D01*
X013225Y015267D01*
X013067Y015425D01*
X012861Y015510D01*
X012639Y015510D01*
X012433Y015425D01*
X012356Y015348D01*
X012280Y015425D01*
X012074Y015510D01*
X011851Y015510D01*
X011645Y015425D01*
X011488Y015267D01*
X011410Y015079D02*
X004477Y015079D01*
X004166Y014841D02*
X011403Y014841D01*
X011519Y014602D02*
X003270Y014602D01*
X003270Y014841D02*
X003334Y014841D01*
X004703Y015795D02*
X020890Y015795D01*
X020890Y016033D02*
X004644Y016033D01*
X013174Y015318D02*
X014494Y015318D01*
X014324Y015079D02*
X013303Y015079D01*
X013310Y014841D02*
X014290Y014841D01*
X014365Y014602D02*
X013194Y014602D01*
X015166Y015318D02*
X016394Y015318D01*
X016224Y015079D02*
X015336Y015079D01*
X015370Y014841D02*
X016190Y014841D01*
X016265Y014602D02*
X015295Y014602D01*
D16*
X015750Y014200D03*
X018500Y011483D03*
X019500Y010700D03*
X020430Y009830D03*
X020750Y008200D03*
X023500Y008950D03*
X026500Y008200D03*
X026500Y006950D03*
X026500Y005950D03*
X026500Y004950D03*
X029250Y005950D03*
X030750Y005950D03*
X029250Y003450D03*
X026840Y003100D03*
X022050Y002950D03*
X019940Y004200D03*
X021930Y004450D03*
X022500Y005950D03*
X021750Y006450D03*
X018590Y006390D03*
X017340Y004320D03*
X014740Y002930D03*
X012250Y002990D03*
X010250Y002950D03*
X008750Y002950D03*
X007250Y002950D03*
X008740Y004900D03*
X005560Y004900D03*
X006200Y006950D03*
X008750Y007200D03*
X007750Y008900D03*
X006000Y009200D03*
X003500Y008200D03*
X006000Y011200D03*
X007400Y011200D03*
X010000Y010700D03*
X010350Y009350D03*
X011690Y008910D03*
X015000Y007950D03*
X017500Y009450D03*
X015000Y010450D03*
X010000Y012700D03*
X007400Y013200D03*
X006000Y013200D03*
X006000Y015200D03*
X007400Y015200D03*
X010000Y014700D03*
X020710Y011730D03*
X023250Y012700D03*
X027250Y010200D03*
X030750Y009450D03*
X012980Y006100D03*
D17*
X013100Y002950D02*
X012800Y002950D01*
X014000Y002950D02*
X014300Y002950D01*
D18*
X004750Y003950D02*
X004250Y003950D01*
D19*
X015900Y003944D02*
X028930Y003944D01*
X028930Y003805D02*
X028845Y003720D01*
X028773Y003545D01*
X028773Y003355D01*
X028845Y003180D01*
X028980Y003045D01*
X029155Y002973D01*
X029345Y002973D01*
X029520Y003045D01*
X029655Y003180D01*
X029727Y003355D01*
X029727Y003545D01*
X029655Y003720D01*
X029570Y003805D01*
X029570Y004764D01*
X029521Y004881D01*
X029431Y004971D01*
X027181Y007221D01*
X027064Y007270D01*
X026855Y007270D01*
X026770Y007355D01*
X026595Y007427D01*
X026405Y007427D01*
X026230Y007355D01*
X026095Y007220D01*
X026023Y007045D01*
X026023Y006855D01*
X026095Y006680D01*
X026230Y006545D01*
X026405Y006473D01*
X026595Y006473D01*
X026770Y006545D01*
X026855Y006630D01*
X026867Y006630D01*
X028930Y004567D01*
X028930Y003805D01*
X028910Y003785D02*
X015900Y003785D01*
X015900Y003627D02*
X028806Y003627D01*
X028773Y003468D02*
X015900Y003468D01*
X015900Y003310D02*
X028791Y003310D01*
X028874Y003151D02*
X015900Y003151D01*
X015900Y002993D02*
X029107Y002993D01*
X029393Y002993D02*
X031266Y002993D01*
X031266Y003151D02*
X029626Y003151D01*
X029709Y003310D02*
X031266Y003310D01*
X031266Y003468D02*
X029727Y003468D01*
X029694Y003627D02*
X031266Y003627D01*
X031266Y003785D02*
X029590Y003785D01*
X029570Y003944D02*
X031266Y003944D01*
X031266Y004102D02*
X029570Y004102D01*
X029570Y004261D02*
X031266Y004261D01*
X031266Y004419D02*
X029570Y004419D01*
X029570Y004578D02*
X031266Y004578D01*
X031266Y004736D02*
X029570Y004736D01*
X029508Y004895D02*
X031266Y004895D01*
X031266Y005053D02*
X029350Y005053D01*
X029431Y004971D02*
X029431Y004971D01*
X029250Y004700D02*
X029250Y003450D01*
X028930Y004102D02*
X015900Y004102D01*
X015900Y004261D02*
X028930Y004261D01*
X028930Y004419D02*
X015900Y004419D01*
X015900Y004578D02*
X026197Y004578D01*
X026230Y004545D02*
X026405Y004473D01*
X026595Y004473D01*
X026770Y004545D01*
X026905Y004680D01*
X026977Y004855D01*
X026977Y005045D01*
X026905Y005220D01*
X026770Y005355D01*
X026595Y005427D01*
X026405Y005427D01*
X026230Y005355D01*
X026145Y005270D01*
X025883Y005270D01*
X024431Y006721D01*
X024314Y006770D01*
X022105Y006770D01*
X022020Y006855D01*
X021845Y006927D01*
X021655Y006927D01*
X021480Y006855D01*
X021345Y006720D01*
X021273Y006545D01*
X021273Y006355D01*
X021345Y006180D01*
X021480Y006045D01*
X021655Y005973D01*
X021845Y005973D01*
X022020Y006045D01*
X022105Y006130D01*
X024117Y006130D01*
X025569Y004679D01*
X025686Y004630D01*
X026145Y004630D01*
X026230Y004545D01*
X026500Y004950D02*
X025750Y004950D01*
X024250Y006450D01*
X021750Y006450D01*
X021362Y006163D02*
X020475Y006163D01*
X020441Y006081D02*
X020520Y006272D01*
X020520Y006479D01*
X020441Y006670D01*
X020342Y006769D01*
X020441Y006868D01*
X020520Y007059D01*
X020520Y007227D01*
X020569Y007179D01*
X020686Y007130D01*
X025814Y007130D01*
X025931Y007179D01*
X026475Y007723D01*
X026595Y007723D01*
X026770Y007795D01*
X026905Y007930D01*
X026977Y008105D01*
X026977Y008295D01*
X026905Y008470D01*
X026770Y008605D01*
X026595Y008677D01*
X026405Y008677D01*
X026230Y008605D01*
X026095Y008470D01*
X026023Y008295D01*
X026023Y008175D01*
X025617Y007770D01*
X020883Y007770D01*
X020681Y007971D01*
X020564Y008020D01*
X020520Y008020D01*
X020520Y008053D01*
X020441Y008245D01*
X020295Y008391D01*
X020103Y008470D01*
X019897Y008470D01*
X019705Y008391D01*
X019559Y008245D01*
X019480Y008053D01*
X019480Y007847D01*
X019559Y007655D01*
X019658Y007556D01*
X019559Y007457D01*
X019480Y007266D01*
X019480Y007059D01*
X019559Y006868D01*
X019658Y006769D01*
X019559Y006670D01*
X019480Y006479D01*
X019480Y006272D01*
X019559Y006081D01*
X019705Y005934D01*
X019897Y005855D01*
X020103Y005855D01*
X020295Y005934D01*
X020441Y006081D01*
X020364Y006004D02*
X021579Y006004D01*
X021921Y006004D02*
X024243Y006004D01*
X024402Y005846D02*
X015900Y005846D01*
X015900Y006004D02*
X019636Y006004D01*
X019525Y006163D02*
X015900Y006163D01*
X015900Y006321D02*
X019480Y006321D01*
X019480Y006480D02*
X015900Y006480D01*
X015900Y006638D02*
X019546Y006638D01*
X019631Y006797D02*
X015900Y006797D01*
X015900Y006955D02*
X019523Y006955D01*
X019480Y007114D02*
X015900Y007114D01*
X015900Y007272D02*
X019482Y007272D01*
X019548Y007431D02*
X015900Y007431D01*
X015900Y007450D02*
X018000Y007450D01*
X018000Y008550D01*
X021000Y008550D01*
X021000Y010200D01*
X021250Y010200D01*
X021250Y015159D01*
X021483Y014926D01*
X021818Y014787D01*
X022182Y014787D01*
X022517Y014926D01*
X022774Y015183D01*
X022913Y015518D01*
X022913Y015882D01*
X022774Y016217D01*
X022771Y016220D01*
X027161Y016220D01*
X027073Y016008D01*
X027073Y015749D01*
X027173Y015508D01*
X027337Y015344D01*
X027274Y015281D01*
X027219Y015205D01*
X027177Y015122D01*
X027148Y015033D01*
X027135Y014952D01*
X028082Y014952D01*
X028082Y014836D01*
X027135Y014836D01*
X027148Y014755D01*
X027177Y014666D01*
X027219Y014583D01*
X027274Y014508D01*
X027340Y014442D01*
X027416Y014387D01*
X027499Y014344D01*
X027525Y014336D01*
X027516Y014327D01*
X027404Y014056D01*
X027404Y013764D01*
X027516Y013493D01*
X027525Y013484D01*
X027499Y013476D01*
X027416Y013433D01*
X027340Y013378D01*
X027274Y013312D01*
X027219Y013237D01*
X027177Y013154D01*
X027148Y013065D01*
X027135Y012984D01*
X028082Y012984D01*
X028082Y012868D01*
X027135Y012868D01*
X027148Y012787D01*
X027177Y012698D01*
X027219Y012615D01*
X027274Y012539D01*
X027337Y012476D01*
X027173Y012312D01*
X027073Y012071D01*
X027073Y011812D01*
X027173Y011571D01*
X027356Y011388D01*
X027597Y011288D01*
X028683Y011288D01*
X028923Y011388D01*
X029107Y011571D01*
X029207Y011812D01*
X029207Y012071D01*
X029107Y012312D01*
X028943Y012476D01*
X029006Y012539D01*
X029061Y012615D01*
X029103Y012698D01*
X029132Y012787D01*
X029145Y012868D01*
X028198Y012868D01*
X028198Y012984D01*
X029145Y012984D01*
X029132Y013065D01*
X029103Y013154D01*
X029061Y013237D01*
X029006Y013312D01*
X028940Y013378D01*
X028864Y013433D01*
X028781Y013476D01*
X028755Y013484D01*
X028764Y013493D01*
X028876Y013764D01*
X028876Y014056D01*
X028764Y014327D01*
X028755Y014336D01*
X028781Y014344D01*
X028864Y014387D01*
X028940Y014442D01*
X029006Y014508D01*
X029061Y014583D01*
X029103Y014666D01*
X029132Y014755D01*
X029145Y014836D01*
X028198Y014836D01*
X028198Y014952D01*
X029145Y014952D01*
X029132Y015033D01*
X029103Y015122D01*
X029061Y015205D01*
X029006Y015281D01*
X028943Y015344D01*
X029107Y015508D01*
X029207Y015749D01*
X029207Y016008D01*
X029119Y016220D01*
X029453Y016220D01*
X029373Y016025D01*
X029373Y015732D01*
X029485Y015462D01*
X029692Y015255D01*
X029962Y015143D01*
X030255Y015143D01*
X030525Y015255D01*
X030601Y015330D01*
X030676Y015255D01*
X030946Y015143D01*
X031239Y015143D01*
X031266Y015154D01*
X031266Y012666D01*
X031239Y012677D01*
X030946Y012677D01*
X030676Y012565D01*
X030601Y012490D01*
X030525Y012565D01*
X030255Y012677D01*
X029962Y012677D01*
X029692Y012565D01*
X029485Y012358D01*
X029373Y012088D01*
X029373Y011795D01*
X029485Y011525D01*
X029692Y011318D01*
X029962Y011206D01*
X030255Y011206D01*
X030525Y011318D01*
X030601Y011393D01*
X030676Y011318D01*
X030946Y011206D01*
X031239Y011206D01*
X031266Y011217D01*
X031266Y002670D01*
X015900Y002670D01*
X015900Y007450D01*
X018000Y007589D02*
X019626Y007589D01*
X019521Y007748D02*
X018000Y007748D01*
X018000Y007906D02*
X019480Y007906D01*
X019485Y008065D02*
X018000Y008065D01*
X018000Y008223D02*
X019550Y008223D01*
X019696Y008382D02*
X018000Y008382D01*
X018000Y008540D02*
X026165Y008540D01*
X026058Y008382D02*
X020304Y008382D01*
X020450Y008223D02*
X026023Y008223D01*
X025912Y008065D02*
X020515Y008065D01*
X020747Y007906D02*
X025753Y007906D01*
X025750Y007450D02*
X026500Y008200D01*
X026881Y007906D02*
X031266Y007906D01*
X031266Y007748D02*
X026655Y007748D01*
X026342Y007589D02*
X031266Y007589D01*
X031266Y007431D02*
X026183Y007431D01*
X026147Y007272D02*
X026025Y007272D01*
X026051Y007114D02*
X020520Y007114D01*
X020477Y006955D02*
X026023Y006955D01*
X026047Y006797D02*
X022079Y006797D01*
X021421Y006797D02*
X020369Y006797D01*
X020454Y006638D02*
X021311Y006638D01*
X021273Y006480D02*
X020520Y006480D01*
X020520Y006321D02*
X021287Y006321D01*
X020750Y007450D02*
X025750Y007450D01*
X026500Y006950D02*
X027000Y006950D01*
X029250Y004700D01*
X028920Y004578D02*
X026803Y004578D01*
X026928Y004736D02*
X028761Y004736D01*
X028603Y004895D02*
X026977Y004895D01*
X026974Y005053D02*
X028444Y005053D01*
X028286Y005212D02*
X026909Y005212D01*
X026734Y005370D02*
X028127Y005370D01*
X027969Y005529D02*
X025624Y005529D01*
X025466Y005687D02*
X027810Y005687D01*
X027652Y005846D02*
X025307Y005846D01*
X025149Y006004D02*
X027493Y006004D01*
X027335Y006163D02*
X024990Y006163D01*
X024832Y006321D02*
X027176Y006321D01*
X027018Y006480D02*
X026612Y006480D01*
X026388Y006480D02*
X024673Y006480D01*
X024515Y006638D02*
X026137Y006638D01*
X026853Y007272D02*
X031266Y007272D01*
X031266Y007114D02*
X027289Y007114D01*
X027448Y006955D02*
X031266Y006955D01*
X031266Y006797D02*
X027606Y006797D01*
X027765Y006638D02*
X031266Y006638D01*
X031266Y006480D02*
X027923Y006480D01*
X028082Y006321D02*
X031266Y006321D01*
X031266Y006163D02*
X028240Y006163D01*
X028399Y006004D02*
X031266Y006004D01*
X031266Y005846D02*
X028557Y005846D01*
X028716Y005687D02*
X031266Y005687D01*
X031266Y005529D02*
X028874Y005529D01*
X029033Y005370D02*
X031266Y005370D01*
X031266Y005212D02*
X029191Y005212D01*
X026266Y005370D02*
X025783Y005370D01*
X025353Y004895D02*
X015900Y004895D01*
X015900Y005053D02*
X025194Y005053D01*
X025036Y005212D02*
X015900Y005212D01*
X015900Y005370D02*
X024877Y005370D01*
X024719Y005529D02*
X015900Y005529D01*
X015900Y005687D02*
X024560Y005687D01*
X025511Y004736D02*
X015900Y004736D01*
X015900Y002834D02*
X031266Y002834D01*
X031266Y002676D02*
X015900Y002676D01*
X020750Y007450D02*
X020500Y007700D01*
X020250Y007700D01*
X020000Y007950D01*
X021000Y008699D02*
X031266Y008699D01*
X031266Y008857D02*
X021877Y008857D01*
X021880Y008859D02*
X021931Y008910D01*
X021973Y008969D01*
X022006Y009033D01*
X022029Y009102D01*
X022040Y009174D01*
X031266Y009174D01*
X031266Y009016D02*
X021997Y009016D01*
X022040Y009174D02*
X022040Y009210D01*
X022040Y009246D01*
X022029Y009318D01*
X022006Y009387D01*
X021973Y009451D01*
X021931Y009510D01*
X021880Y009561D01*
X021821Y009603D01*
X021757Y009636D01*
X021688Y009659D01*
X021616Y009670D01*
X021580Y009670D01*
X021580Y009210D01*
X022040Y009210D01*
X021580Y009210D01*
X021580Y009210D01*
X021580Y009210D01*
X021580Y008750D01*
X021616Y008750D01*
X021688Y008761D01*
X021757Y008784D01*
X021821Y008817D01*
X021880Y008859D01*
X021580Y008857D02*
X021580Y008857D01*
X021580Y008750D02*
X021580Y009210D01*
X021580Y009210D01*
X021580Y009210D01*
X021120Y009210D01*
X021120Y009246D01*
X021131Y009318D01*
X021154Y009387D01*
X021187Y009451D01*
X021229Y009510D01*
X021280Y009561D01*
X021339Y009603D01*
X021403Y009636D01*
X021472Y009659D01*
X021544Y009670D01*
X021580Y009670D01*
X021580Y009210D01*
X021120Y009210D01*
X021120Y009174D01*
X021000Y009174D01*
X021120Y009174D02*
X021131Y009102D01*
X021154Y009033D01*
X021187Y008969D01*
X021229Y008910D01*
X021280Y008859D01*
X021339Y008817D01*
X021403Y008784D01*
X021472Y008761D01*
X021544Y008750D01*
X021580Y008750D01*
X021283Y008857D02*
X021000Y008857D01*
X021000Y009016D02*
X021163Y009016D01*
X021580Y009016D02*
X021580Y009016D01*
X021580Y009174D02*
X021580Y009174D01*
X021580Y009333D02*
X021580Y009333D01*
X021580Y009491D02*
X021580Y009491D01*
X021580Y009650D02*
X021580Y009650D01*
X021444Y009650D02*
X021000Y009650D01*
X021000Y009808D02*
X031266Y009808D01*
X031266Y009650D02*
X021716Y009650D01*
X021944Y009491D02*
X031266Y009491D01*
X031266Y009333D02*
X022024Y009333D01*
X021216Y009491D02*
X021000Y009491D01*
X021000Y009333D02*
X021136Y009333D01*
X021000Y009967D02*
X031266Y009967D01*
X031266Y010125D02*
X021000Y010125D01*
X021250Y010284D02*
X031266Y010284D01*
X031266Y010442D02*
X021250Y010442D01*
X021250Y010601D02*
X031266Y010601D01*
X031266Y010759D02*
X021250Y010759D01*
X021250Y010918D02*
X031266Y010918D01*
X031266Y011076D02*
X021250Y011076D01*
X021250Y011235D02*
X029892Y011235D01*
X029616Y011393D02*
X028929Y011393D01*
X029087Y011552D02*
X029474Y011552D01*
X029408Y011710D02*
X029165Y011710D01*
X029207Y011869D02*
X029373Y011869D01*
X029373Y012027D02*
X029207Y012027D01*
X029160Y012186D02*
X029413Y012186D01*
X029479Y012344D02*
X029075Y012344D01*
X028969Y012503D02*
X029629Y012503D01*
X029923Y012661D02*
X029084Y012661D01*
X029137Y012820D02*
X031266Y012820D01*
X031266Y012978D02*
X030280Y012978D01*
X030301Y012989D02*
X030377Y013044D01*
X030443Y013110D01*
X030498Y013186D01*
X030540Y013269D01*
X030569Y013358D01*
X030584Y013450D01*
X030584Y013852D01*
X030048Y013852D01*
X030048Y012905D01*
X030129Y012918D01*
X030218Y012947D01*
X030301Y012989D01*
X030462Y013137D02*
X031266Y013137D01*
X031266Y013295D02*
X030549Y013295D01*
X030584Y013454D02*
X031266Y013454D01*
X031266Y013612D02*
X030584Y013612D01*
X030584Y013771D02*
X031266Y013771D01*
X031266Y013929D02*
X030048Y013929D01*
X030048Y013968D02*
X030584Y013968D01*
X030584Y014370D01*
X030569Y014462D01*
X030540Y014551D01*
X030498Y014634D01*
X030443Y014710D01*
X030377Y014776D01*
X030301Y014831D01*
X030218Y014873D01*
X030129Y014902D01*
X030048Y014915D01*
X030048Y013968D01*
X029933Y013968D01*
X029933Y014915D01*
X029851Y014902D01*
X029763Y014873D01*
X029679Y014831D01*
X029604Y014776D01*
X029538Y014710D01*
X029483Y014634D01*
X029440Y014551D01*
X029412Y014462D01*
X029397Y014370D01*
X029397Y013968D01*
X029933Y013968D01*
X029933Y013852D01*
X030048Y013852D01*
X030048Y013968D01*
X030048Y014088D02*
X029933Y014088D01*
X029933Y014246D02*
X030048Y014246D01*
X030048Y014405D02*
X029933Y014405D01*
X029933Y014563D02*
X030048Y014563D01*
X030048Y014722D02*
X029933Y014722D01*
X029933Y014880D02*
X030048Y014880D01*
X030197Y014880D02*
X031266Y014880D01*
X031266Y014722D02*
X030431Y014722D01*
X030534Y014563D02*
X031266Y014563D01*
X031266Y014405D02*
X030578Y014405D01*
X030584Y014246D02*
X031266Y014246D01*
X031266Y014088D02*
X030584Y014088D01*
X030048Y013771D02*
X029933Y013771D01*
X029933Y013852D02*
X029933Y012905D01*
X029851Y012918D01*
X029763Y012947D01*
X029679Y012989D01*
X029604Y013044D01*
X029538Y013110D01*
X029483Y013186D01*
X029440Y013269D01*
X029412Y013358D01*
X029397Y013450D01*
X029397Y013852D01*
X029933Y013852D01*
X029933Y013929D02*
X028876Y013929D01*
X028876Y013771D02*
X029397Y013771D01*
X029397Y013612D02*
X028813Y013612D01*
X028825Y013454D02*
X029397Y013454D01*
X029432Y013295D02*
X029019Y013295D01*
X029109Y013137D02*
X029519Y013137D01*
X029701Y012978D02*
X028198Y012978D01*
X028082Y012978D02*
X021250Y012978D01*
X021250Y012820D02*
X027143Y012820D01*
X027196Y012661D02*
X021250Y012661D01*
X021250Y012503D02*
X027311Y012503D01*
X027205Y012344D02*
X021250Y012344D01*
X021250Y012186D02*
X027120Y012186D01*
X027073Y012027D02*
X021250Y012027D01*
X021250Y011869D02*
X027073Y011869D01*
X027115Y011710D02*
X021250Y011710D01*
X021250Y011552D02*
X027193Y011552D01*
X027351Y011393D02*
X021250Y011393D01*
X020500Y012200D02*
X019783Y011483D01*
X018500Y011483D01*
X020500Y012200D02*
X020500Y012525D01*
X019787Y013237D01*
X021250Y013295D02*
X027261Y013295D01*
X027171Y013137D02*
X021250Y013137D01*
X021250Y013454D02*
X027455Y013454D01*
X027467Y013612D02*
X021250Y013612D01*
X021250Y013771D02*
X027404Y013771D01*
X027404Y013929D02*
X021250Y013929D01*
X021250Y014088D02*
X027417Y014088D01*
X027483Y014246D02*
X021250Y014246D01*
X021250Y014405D02*
X027391Y014405D01*
X027234Y014563D02*
X021250Y014563D01*
X021250Y014722D02*
X027159Y014722D01*
X027150Y015039D02*
X022630Y015039D01*
X022780Y015197D02*
X027215Y015197D01*
X027326Y015356D02*
X022846Y015356D01*
X022911Y015514D02*
X027170Y015514D01*
X027105Y015673D02*
X022913Y015673D01*
X022913Y015831D02*
X027073Y015831D01*
X027073Y015990D02*
X022868Y015990D01*
X022803Y016148D02*
X027131Y016148D01*
X028954Y015356D02*
X029591Y015356D01*
X029463Y015514D02*
X029110Y015514D01*
X029175Y015673D02*
X029397Y015673D01*
X029373Y015831D02*
X029207Y015831D01*
X029207Y015990D02*
X029373Y015990D01*
X029424Y016148D02*
X029149Y016148D01*
X029065Y015197D02*
X029831Y015197D01*
X029783Y014880D02*
X028198Y014880D01*
X028082Y014880D02*
X022406Y014880D01*
X021594Y014880D02*
X021250Y014880D01*
X021250Y015039D02*
X021370Y015039D01*
X028797Y014246D02*
X029397Y014246D01*
X029397Y014088D02*
X028863Y014088D01*
X028889Y014405D02*
X029402Y014405D01*
X029447Y014563D02*
X029046Y014563D01*
X029121Y014722D02*
X029549Y014722D01*
X029130Y015039D02*
X031266Y015039D01*
X030815Y015197D02*
X030386Y015197D01*
X030048Y013612D02*
X029933Y013612D01*
X029933Y013454D02*
X030048Y013454D01*
X030048Y013295D02*
X029933Y013295D01*
X029933Y013137D02*
X030048Y013137D01*
X030048Y012978D02*
X029933Y012978D01*
X030294Y012661D02*
X030907Y012661D01*
X030613Y012503D02*
X030588Y012503D01*
X030325Y011235D02*
X030877Y011235D01*
X031266Y008540D02*
X026835Y008540D01*
X026942Y008382D02*
X031266Y008382D01*
X031266Y008223D02*
X026977Y008223D01*
X026961Y008065D02*
X031266Y008065D01*
D20*
X016250Y002950D02*
X016250Y002690D01*
X014280Y002690D01*
X014280Y002935D01*
X013865Y002935D01*
X013865Y002965D01*
X014280Y002965D01*
X014280Y003200D01*
X016000Y003200D01*
X016250Y002950D01*
X016206Y002994D02*
X014280Y002994D01*
X014280Y002796D02*
X016250Y002796D01*
X016007Y003193D02*
X014280Y003193D01*
M02*
