%
M48
M72
T01C0.0315
T02C0.0320
T03C0.0400
T04C0.0512
T05C0.0551
T06C0.0866
%
T01
X7250Y2950
X8750Y2950
X10250Y2950
X12250Y2990
X14740Y2930
X17340Y4320
X15080Y4820
X14293Y4820
X13505Y4820
X12718Y4820
X11510Y5808
X11510Y6595
X12980Y6100
X11510Y7383
X11510Y8170
X11690Y8910
X10350Y9350
X9750Y8750
X8963Y8750
X7750Y8900
X6000Y9200
X3500Y8200
X6200Y6950
X8750Y7200
X8740Y4900
X5560Y4900
X15000Y7950
X17500Y9450
X19500Y10700
X18500Y11483
X19000Y12450
X19787Y12450
X19787Y13237
X19000Y13237
X19000Y14025
X19787Y14025
X23250Y12700
X20710Y11730
X20430Y9830
X21580Y9210
X20750Y8200
X20000Y7950
X20000Y7163
X20000Y6375
X18590Y6390
X21750Y6450
X22500Y5950
X21930Y4450
X19940Y4200
X22050Y2950
X26500Y4950
X26500Y5950
X26500Y6950
X26500Y8200
X23500Y8950
X27250Y10200
X30750Y9450
X30750Y5950
X29250Y5950
X29250Y3450
X26840Y3100
X15000Y10450
X12470Y10290
X10000Y10700
X7400Y11200
X6000Y11200
X6000Y13200
X7400Y13200
X10000Y12700
X12500Y12987
X12500Y12200
X15750Y14200
X12750Y14950
X11963Y14950
X10000Y14700
X7400Y15200
X6000Y15200
T02
X14830Y14890
X16730Y14890
T03
X4500Y3950
X4500Y4950
X4500Y10200
X4500Y11200
X4500Y12200
X4500Y13200
T04
X28140Y13910
X30109Y11941
X31093Y11941
X31093Y15879
X30109Y15879
T05
X28140Y15879
X28140Y14894
X29990Y13910
X28140Y12926
X28140Y11941
T06
X22000Y15700
X3750Y15700
M30
