G75*
G70*
%OFA0B0*%
%FSLAX24Y24*%
%IPPOS*%
%LPD*%
%AMOC8*
5,1,8,0,0,1.08239X$1,22.5*
%
%ADD10C,0.0946*%
%ADD11C,0.0680*%
%ADD12C,0.0600*%
%ADD13C,0.0640*%
%ADD14C,0.0592*%
%ADD15C,0.0907*%
%ADD16R,0.0540X0.0710*%
%ADD17R,0.0060X0.0720*%
%ADD18C,0.0555*%
D10*
X003750Y015700D03*
X022000Y015700D03*
D11*
X004800Y003950D02*
X004200Y003950D01*
X004200Y004950D02*
X004800Y004950D01*
X004800Y010200D02*
X004200Y010200D01*
X004200Y011200D02*
X004800Y011200D01*
X004800Y012200D02*
X004200Y012200D01*
X004200Y013200D02*
X004800Y013200D01*
D12*
X014830Y014890D03*
X016730Y014890D03*
D13*
X019000Y014025D03*
X019787Y014025D03*
X019787Y013237D03*
X019000Y013237D03*
X019000Y012450D03*
X019787Y012450D03*
X021580Y009210D03*
X020000Y007950D03*
X020000Y007163D03*
X020000Y006375D03*
X015080Y004820D03*
X014293Y004820D03*
X013505Y004820D03*
X012718Y004820D03*
X011510Y005808D03*
X011510Y006595D03*
X011510Y007383D03*
X011510Y008170D03*
X009750Y008750D03*
X008963Y008750D03*
X012470Y010290D03*
X012500Y012200D03*
X012500Y012987D03*
X012750Y014950D03*
X011963Y014950D03*
D14*
X028140Y013910D03*
X030109Y011941D03*
X031093Y011941D03*
X031093Y015879D03*
X030109Y015879D03*
D15*
X028553Y015879D02*
X027727Y015879D01*
X027727Y014894D02*
X028553Y014894D01*
X029990Y014323D02*
X029990Y013497D01*
X028553Y012926D02*
X027727Y012926D01*
X027727Y011941D02*
X028553Y011941D01*
D16*
X013850Y002950D03*
X013250Y002950D03*
D17*
X013550Y002950D03*
D18*
X014740Y002930D03*
X012250Y002990D03*
X010250Y002950D03*
X008750Y002950D03*
X007250Y002950D03*
X008740Y004900D03*
X005560Y004900D03*
X006200Y006950D03*
X008750Y007200D03*
X007750Y008900D03*
X006000Y009200D03*
X003500Y008200D03*
X006000Y011200D03*
X007400Y011200D03*
X010000Y010700D03*
X010350Y009350D03*
X011690Y008910D03*
X015000Y007950D03*
X017500Y009450D03*
X019500Y010700D03*
X018500Y011483D03*
X020710Y011730D03*
X023250Y012700D03*
X027250Y010200D03*
X030750Y009450D03*
X026500Y008200D03*
X026500Y006950D03*
X026500Y005950D03*
X026500Y004950D03*
X029250Y005950D03*
X030750Y005950D03*
X029250Y003450D03*
X026840Y003100D03*
X022050Y002950D03*
X019940Y004200D03*
X021930Y004450D03*
X022500Y005950D03*
X021750Y006450D03*
X020750Y008200D03*
X023500Y008950D03*
X020430Y009830D03*
X015000Y010450D03*
X010000Y012700D03*
X007400Y013200D03*
X006000Y013200D03*
X006000Y015200D03*
X007400Y015200D03*
X010000Y014700D03*
X015750Y014200D03*
X018590Y006390D03*
X017340Y004320D03*
X012980Y006100D03*
M02*
