G75*
G70*
%OFA0B0*%
%FSLAX24Y24*%
%IPPOS*%
%LPD*%
%AMOC8*
5,1,8,0,0,1.08239X$1,22.5*
%
%ADD10R,0.0512X0.0591*%
%ADD11R,0.0591X0.0512*%
%ADD12R,0.0551X0.0394*%
%ADD13C,0.0600*%
%ADD14R,0.0780X0.0220*%
%ADD15R,0.1181X0.0984*%
%ADD16R,0.0945X0.0945*%
%ADD17R,0.1339X0.0748*%
%ADD18C,0.0520*%
%ADD19R,0.0866X0.0236*%
%ADD20R,0.0197X0.0591*%
%ADD21R,0.0591X0.0197*%
%ADD22C,0.0560*%
%ADD23R,0.0236X0.0866*%
%ADD24C,0.0827*%
%ADD25R,0.0460X0.0630*%
%ADD26C,0.0240*%
%ADD27C,0.0475*%
%ADD28C,0.0200*%
%ADD29C,0.0560*%
%ADD30C,0.1000*%
%ADD31C,0.0320*%
%ADD32C,0.0160*%
%ADD33C,0.0400*%
%ADD34C,0.0500*%
D10*
X007376Y005450D03*
X008124Y005450D03*
X009376Y005450D03*
X010124Y005450D03*
X009374Y009950D03*
X008626Y009950D03*
X008874Y010750D03*
X008126Y010750D03*
X008626Y011950D03*
X009374Y011950D03*
X008874Y012750D03*
X008126Y012750D03*
X008626Y013950D03*
X009374Y013950D03*
X008874Y014750D03*
X008126Y014750D03*
X014586Y013140D03*
X015334Y013140D03*
X016226Y013140D03*
X016974Y013140D03*
X019376Y015200D03*
X020124Y015200D03*
X025126Y015450D03*
X025874Y015450D03*
X025626Y010600D03*
X026374Y010600D03*
X024624Y010100D03*
X023876Y010100D03*
X022924Y010500D03*
X022176Y010500D03*
X020474Y009140D03*
X019726Y009140D03*
X022626Y007950D03*
X023374Y007950D03*
X024626Y008450D03*
X025374Y008450D03*
X025626Y009600D03*
X026374Y009600D03*
X027626Y008450D03*
X028374Y008450D03*
X029626Y006950D03*
X030374Y006950D03*
X030374Y004950D03*
X029626Y004950D03*
X028374Y003450D03*
X027626Y003450D03*
X025374Y003450D03*
X024626Y003450D03*
X023374Y003950D03*
X022626Y003950D03*
X022626Y004950D03*
X023374Y004950D03*
X023376Y005950D03*
X024124Y005950D03*
X023374Y006950D03*
X022626Y006950D03*
X029376Y010200D03*
X030124Y010200D03*
D11*
X030000Y008574D03*
X030000Y007826D03*
X028750Y007574D03*
X028750Y006826D03*
X028750Y005074D03*
X028750Y004326D03*
X030000Y004074D03*
X030000Y003326D03*
X024250Y004326D03*
X024250Y005074D03*
X024250Y006826D03*
X024250Y007574D03*
X017600Y005794D03*
X017600Y005046D03*
X016500Y005074D03*
X016500Y004326D03*
X012500Y008526D03*
X012500Y009274D03*
X025750Y011826D03*
X025750Y012574D03*
X025750Y013576D03*
X025750Y014324D03*
D12*
X006933Y014574D03*
X006067Y014200D03*
X006933Y013826D03*
X006933Y012574D03*
X006067Y012200D03*
X006933Y011826D03*
X006933Y010574D03*
X006067Y010200D03*
X006933Y009826D03*
D13*
X004800Y010200D02*
X004200Y010200D01*
X004200Y011200D02*
X004800Y011200D01*
X004800Y012200D02*
X004200Y012200D01*
X004200Y013200D02*
X004800Y013200D01*
X004800Y004950D02*
X004200Y004950D01*
X004200Y003950D02*
X004800Y003950D01*
D14*
X007780Y006450D03*
X007780Y006950D03*
X007780Y007450D03*
X007780Y007950D03*
X009720Y007950D03*
X009720Y007450D03*
X009720Y006950D03*
X009720Y006450D03*
D15*
X006200Y005917D03*
X006200Y007983D03*
D16*
X006266Y003950D03*
X008234Y003950D03*
X009266Y003950D03*
X011234Y003950D03*
D17*
X019140Y003432D03*
X021000Y003682D03*
X019140Y004968D03*
X021000Y005218D03*
D18*
X016730Y014890D03*
X014830Y014890D03*
D19*
X025476Y007450D03*
X025476Y006950D03*
X025476Y006450D03*
X025476Y005950D03*
X025476Y005450D03*
X025476Y004950D03*
X025476Y004450D03*
X027524Y004450D03*
X027524Y004950D03*
X027524Y005450D03*
X027524Y005950D03*
X027524Y006450D03*
X027524Y006950D03*
X027524Y007450D03*
D20*
X017825Y006917D03*
X017510Y006917D03*
X017195Y006917D03*
X016880Y006917D03*
X016565Y006917D03*
X016250Y006917D03*
X015935Y006917D03*
X015620Y006917D03*
X015305Y006917D03*
X014990Y006917D03*
X014675Y006917D03*
X014675Y011483D03*
X014990Y011483D03*
X015305Y011483D03*
X015620Y011483D03*
X015935Y011483D03*
X016250Y011483D03*
X016565Y011483D03*
X016880Y011483D03*
X017195Y011483D03*
X017510Y011483D03*
X017825Y011483D03*
D21*
X018533Y010775D03*
X018533Y010460D03*
X018533Y010145D03*
X018533Y009830D03*
X018533Y009515D03*
X018533Y009200D03*
X018533Y008885D03*
X018533Y008570D03*
X018533Y008255D03*
X018533Y007940D03*
X018533Y007625D03*
X013967Y007625D03*
X013967Y007940D03*
X013967Y008255D03*
X013967Y008570D03*
X013967Y008885D03*
X013967Y009200D03*
X013967Y009515D03*
X013967Y009830D03*
X013967Y010145D03*
X013967Y010460D03*
X013967Y010775D03*
D22*
X012470Y010290D03*
X009750Y008750D03*
X008963Y008750D03*
X011510Y008170D03*
X011510Y007383D03*
X011510Y006595D03*
X011510Y005808D03*
X012718Y004820D03*
X013505Y004820D03*
X014293Y004820D03*
X015080Y004820D03*
X020000Y006375D03*
X020000Y007163D03*
X020000Y007950D03*
X021580Y009210D03*
X019787Y012450D03*
X019000Y012450D03*
X019000Y013237D03*
X019787Y013237D03*
X019787Y014025D03*
X019000Y014025D03*
X012750Y014950D03*
X011963Y014950D03*
X012500Y012987D03*
X012500Y012200D03*
D23*
X021750Y011676D03*
X022250Y011676D03*
X022750Y011676D03*
X023250Y011676D03*
X023750Y011676D03*
X024250Y011676D03*
X024750Y011676D03*
X024750Y013724D03*
X024250Y013724D03*
X023750Y013724D03*
X023250Y013724D03*
X022750Y013724D03*
X022250Y013724D03*
X021750Y013724D03*
D24*
X027727Y012926D02*
X028553Y012926D01*
X029990Y013497D02*
X029990Y014323D01*
X028553Y014894D02*
X027727Y014894D01*
X027727Y015879D02*
X028553Y015879D01*
X028553Y011941D02*
X027727Y011941D01*
D25*
X013850Y002950D03*
X013250Y002950D03*
D26*
X003270Y002710D02*
X003270Y014867D01*
X003560Y014747D01*
X003940Y014747D01*
X004290Y014892D01*
X004558Y015160D01*
X004703Y015510D01*
X004703Y015890D01*
X004583Y016180D01*
X020890Y016180D01*
X020890Y010544D01*
X020796Y010505D01*
X020695Y010404D01*
X020640Y010272D01*
X020640Y009655D01*
X020482Y009655D01*
X020482Y009148D01*
X020466Y009148D01*
X020466Y009655D01*
X020189Y009655D01*
X020164Y009649D01*
X020140Y009673D01*
X020106Y009687D01*
X020106Y009769D01*
X020572Y010235D01*
X020630Y010374D01*
X020630Y011026D01*
X020572Y011165D01*
X020465Y011272D01*
X020167Y011570D01*
X020167Y012038D01*
X020262Y012133D01*
X020283Y012183D01*
X020704Y012604D01*
X020805Y012705D01*
X020860Y012837D01*
X020860Y014896D01*
X020805Y015028D01*
X020660Y015173D01*
X020660Y015551D01*
X020617Y015654D01*
X020539Y015733D01*
X020436Y015775D01*
X019812Y015775D01*
X019750Y015749D01*
X019688Y015775D01*
X019064Y015775D01*
X018961Y015733D01*
X018883Y015654D01*
X018840Y015551D01*
X018840Y014849D01*
X018883Y014746D01*
X018960Y014669D01*
X018867Y014576D01*
X018683Y014500D01*
X018525Y014342D01*
X018520Y014329D01*
X018420Y014229D01*
X017510Y013319D01*
X017510Y013491D01*
X017467Y013594D01*
X017389Y013673D01*
X017334Y013695D01*
X017334Y014718D01*
X017279Y014850D01*
X017270Y014859D01*
X017270Y014997D01*
X017188Y015196D01*
X017036Y015348D01*
X016837Y015430D01*
X016623Y015430D01*
X016424Y015348D01*
X016272Y015196D01*
X016190Y014997D01*
X016190Y014783D01*
X016272Y014584D01*
X016424Y014432D01*
X016614Y014354D01*
X016614Y013695D01*
X016560Y013673D01*
X016536Y013649D01*
X016511Y013655D01*
X016234Y013655D01*
X016234Y013148D01*
X016218Y013148D01*
X016218Y013655D01*
X015941Y013655D01*
X015885Y013640D01*
X015835Y013611D01*
X015794Y013570D01*
X015780Y013546D01*
X015766Y013570D01*
X015725Y013611D01*
X015675Y013640D01*
X015619Y013655D01*
X015342Y013655D01*
X015342Y013148D01*
X015326Y013148D01*
X015326Y013655D01*
X015049Y013655D01*
X015024Y013649D01*
X015000Y013673D01*
X014946Y013695D01*
X014946Y014354D01*
X015136Y014432D01*
X015288Y014584D01*
X015370Y014783D01*
X015370Y014997D01*
X015288Y015196D01*
X015136Y015348D01*
X014937Y015430D01*
X014723Y015430D01*
X014524Y015348D01*
X014372Y015196D01*
X014290Y014997D01*
X014290Y014859D01*
X014281Y014850D01*
X014226Y014718D01*
X014226Y013695D01*
X014171Y013673D01*
X014093Y013594D01*
X014086Y013579D01*
X014055Y013654D01*
X013954Y013755D01*
X013151Y014559D01*
X013225Y014633D01*
X013310Y014839D01*
X013310Y015061D01*
X013225Y015267D01*
X013067Y015425D01*
X012861Y015510D01*
X012639Y015510D01*
X012433Y015425D01*
X012356Y015348D01*
X012280Y015425D01*
X012074Y015510D01*
X011851Y015510D01*
X011645Y015425D01*
X011488Y015267D01*
X011403Y015061D01*
X011403Y014839D01*
X011488Y014633D01*
X011645Y014475D01*
X011765Y014426D01*
X012666Y013525D01*
X012611Y013547D01*
X012389Y013547D01*
X012183Y013462D01*
X012025Y013305D01*
X011940Y013099D01*
X011940Y012876D01*
X012025Y012670D01*
X012102Y012594D01*
X012025Y012517D01*
X011940Y012311D01*
X011940Y012269D01*
X011860Y012349D01*
X011860Y013022D01*
X011805Y013154D01*
X011704Y013255D01*
X010805Y014154D01*
X010704Y014255D01*
X010572Y014310D01*
X009906Y014310D01*
X009867Y014404D01*
X009789Y014483D01*
X009686Y014525D01*
X009410Y014525D01*
X009410Y015101D01*
X009367Y015204D01*
X009289Y015283D01*
X009186Y015325D01*
X008562Y015325D01*
X008460Y015283D01*
X008436Y015259D01*
X008411Y015265D01*
X008134Y015265D01*
X008134Y014758D01*
X008118Y014758D01*
X008118Y015265D01*
X007841Y015265D01*
X007785Y015250D01*
X007735Y015221D01*
X007694Y015180D01*
X007665Y015130D01*
X007650Y015074D01*
X007650Y014758D01*
X008118Y014758D01*
X008118Y014742D01*
X007650Y014742D01*
X007650Y014426D01*
X007665Y014370D01*
X007694Y014320D01*
X007704Y014310D01*
X007428Y014310D01*
X007417Y014305D01*
X007429Y014348D01*
X007429Y014574D01*
X007429Y014800D01*
X007414Y014856D01*
X007385Y014906D01*
X007344Y014947D01*
X007294Y014976D01*
X007238Y014991D01*
X006933Y014991D01*
X006629Y014991D01*
X006573Y014976D01*
X006522Y014947D01*
X006481Y014906D01*
X006452Y014856D01*
X006437Y014800D01*
X006437Y014661D01*
X006398Y014677D01*
X006170Y014677D01*
X006162Y014680D01*
X005655Y014680D01*
X005478Y014607D01*
X004651Y013780D01*
X004085Y013780D01*
X003871Y013692D01*
X003708Y013529D01*
X003620Y013315D01*
X003620Y013085D01*
X003708Y012871D01*
X003871Y012708D01*
X003891Y012700D01*
X003871Y012692D01*
X003708Y012529D01*
X003620Y012315D01*
X003620Y012085D01*
X003708Y011871D01*
X003871Y011708D01*
X003891Y011700D01*
X003871Y011692D01*
X003708Y011529D01*
X003620Y011315D01*
X003620Y011085D01*
X003708Y010871D01*
X003871Y010708D01*
X003891Y010700D01*
X003871Y010692D01*
X003708Y010529D01*
X003620Y010315D01*
X003620Y010085D01*
X003708Y009871D01*
X003871Y009708D01*
X003970Y009667D01*
X003970Y007870D01*
X003600Y007499D01*
X003451Y007350D01*
X003370Y007155D01*
X003370Y005445D01*
X003451Y005250D01*
X003624Y005076D01*
X003620Y005065D01*
X003620Y004835D01*
X003708Y004621D01*
X003871Y004458D01*
X003971Y004417D01*
X003927Y004395D01*
X003861Y004347D01*
X003803Y004289D01*
X003755Y004223D01*
X003718Y004150D01*
X003693Y004072D01*
X003680Y003991D01*
X003680Y003950D01*
X004500Y003950D01*
X005320Y003950D01*
X005320Y003991D01*
X005307Y004072D01*
X005282Y004150D01*
X005245Y004223D01*
X005197Y004289D01*
X005139Y004347D01*
X005073Y004395D01*
X005029Y004417D01*
X005129Y004458D01*
X005292Y004621D01*
X005380Y004835D01*
X005380Y005065D01*
X005292Y005279D01*
X005129Y005442D01*
X004980Y005503D01*
X004980Y006501D01*
X005690Y007211D01*
X006846Y007211D01*
X006949Y007254D01*
X007028Y007333D01*
X007071Y007436D01*
X007071Y008531D01*
X007028Y008634D01*
X006949Y008713D01*
X006846Y008756D01*
X005554Y008756D01*
X005451Y008713D01*
X005372Y008634D01*
X005329Y008531D01*
X005329Y008208D01*
X005030Y007909D01*
X005030Y009667D01*
X005129Y009708D01*
X005292Y009871D01*
X005323Y009948D01*
X005478Y009793D01*
X005655Y009720D01*
X006162Y009720D01*
X006170Y009723D01*
X006377Y009723D01*
X006377Y009573D01*
X006420Y009471D01*
X006499Y009392D01*
X006602Y009349D01*
X007264Y009349D01*
X007367Y009392D01*
X007441Y009466D01*
X007448Y009466D01*
X007580Y009521D01*
X007649Y009590D01*
X008094Y009590D01*
X008133Y009496D01*
X008211Y009417D01*
X008314Y009375D01*
X008938Y009375D01*
X009000Y009401D01*
X009062Y009375D01*
X009686Y009375D01*
X009789Y009417D01*
X009867Y009496D01*
X009906Y009590D01*
X010924Y009590D01*
X010400Y009066D01*
X010377Y009089D01*
X010230Y009150D01*
X010142Y009150D01*
X010067Y009225D01*
X009861Y009310D01*
X009639Y009310D01*
X009433Y009225D01*
X009314Y009106D01*
X009288Y009131D01*
X009225Y009178D01*
X009155Y009213D01*
X009080Y009238D01*
X009002Y009250D01*
X008963Y009250D01*
X008963Y008750D01*
X008963Y008250D01*
X009002Y008250D01*
X009080Y008262D01*
X009155Y008287D01*
X009167Y008293D01*
X009093Y008219D01*
X009050Y008116D01*
X009050Y007784D01*
X009093Y007681D01*
X009126Y007648D01*
X009125Y007645D01*
X009110Y007589D01*
X009110Y007450D01*
X009720Y007450D01*
X009720Y007450D01*
X009720Y007120D01*
X009720Y006950D01*
X009720Y006950D01*
X009720Y006950D01*
X009110Y006950D01*
X009110Y007089D01*
X009125Y007145D01*
X009154Y007195D01*
X009159Y007200D01*
X009154Y007205D01*
X009125Y007255D01*
X009110Y007311D01*
X009110Y007450D01*
X009720Y007450D01*
X009720Y007450D01*
X009720Y006950D01*
X009110Y006950D01*
X009110Y006811D01*
X009125Y006755D01*
X009126Y006752D01*
X009093Y006719D01*
X009050Y006616D01*
X009050Y006284D01*
X009093Y006181D01*
X009171Y006103D01*
X009274Y006060D01*
X009488Y006060D01*
X009582Y005965D01*
X009384Y005965D01*
X009384Y005458D01*
X009368Y005458D01*
X009368Y005965D01*
X009091Y005965D01*
X009035Y005950D01*
X008985Y005921D01*
X008944Y005880D01*
X008915Y005830D01*
X008900Y005774D01*
X008900Y005458D01*
X009368Y005458D01*
X009368Y005442D01*
X009384Y005442D01*
X009384Y004935D01*
X009661Y004935D01*
X009686Y004941D01*
X009705Y004922D01*
X009751Y004811D01*
X010482Y004080D01*
X010482Y003422D01*
X010524Y003319D01*
X010603Y003240D01*
X010706Y003198D01*
X011762Y003198D01*
X011865Y003240D01*
X011885Y003260D01*
X012800Y003260D01*
X012800Y002950D01*
X013250Y002950D01*
X013250Y002950D01*
X012800Y002950D01*
X012800Y002710D01*
X003270Y002710D01*
X003270Y002916D02*
X012800Y002916D01*
X012800Y003154D02*
X003270Y003154D01*
X003270Y003393D02*
X005525Y003393D01*
X005513Y003422D02*
X005556Y003319D01*
X005635Y003240D01*
X005738Y003198D01*
X006794Y003198D01*
X006897Y003240D01*
X006976Y003319D01*
X007018Y003422D01*
X007018Y004024D01*
X007783Y004788D01*
X007844Y004935D01*
X008116Y004935D01*
X008116Y005442D01*
X008132Y005442D01*
X008132Y004935D01*
X008409Y004935D01*
X008465Y004950D01*
X008515Y004979D01*
X008556Y005020D01*
X008585Y005070D01*
X008600Y005126D01*
X008600Y005442D01*
X008132Y005442D01*
X008132Y005458D01*
X008116Y005458D01*
X008116Y005965D01*
X007974Y005965D01*
X008069Y006060D01*
X008226Y006060D01*
X008329Y006103D01*
X008407Y006181D01*
X008450Y006284D01*
X008450Y006616D01*
X008407Y006719D01*
X008374Y006752D01*
X008375Y006755D01*
X008390Y006811D01*
X008390Y006950D01*
X008390Y007089D01*
X008375Y007145D01*
X008346Y007195D01*
X008341Y007200D01*
X008346Y007205D01*
X008375Y007255D01*
X008390Y007311D01*
X008390Y007450D01*
X008390Y007589D01*
X008375Y007645D01*
X008374Y007648D01*
X008407Y007681D01*
X008450Y007784D01*
X008450Y008116D01*
X008407Y008219D01*
X008329Y008297D01*
X008226Y008340D01*
X007334Y008340D01*
X007231Y008297D01*
X007153Y008219D01*
X007110Y008116D01*
X007110Y007784D01*
X007153Y007681D01*
X007186Y007648D01*
X007185Y007645D01*
X007170Y007589D01*
X007170Y007450D01*
X007780Y007450D01*
X008390Y007450D01*
X007780Y007450D01*
X007780Y007450D01*
X007780Y007450D01*
X007780Y006950D01*
X008390Y006950D01*
X007780Y006950D01*
X007780Y006950D01*
X007780Y006950D01*
X007780Y006950D01*
X007170Y006950D01*
X007170Y007089D01*
X007185Y007145D01*
X007214Y007195D01*
X007219Y007200D01*
X007214Y007205D01*
X007185Y007255D01*
X007170Y007311D01*
X007170Y007450D01*
X007780Y007450D01*
X007780Y007450D01*
X007780Y007280D01*
X007780Y006950D01*
X007170Y006950D01*
X007170Y006811D01*
X007185Y006755D01*
X007186Y006752D01*
X007153Y006719D01*
X007110Y006616D01*
X007110Y006459D01*
X007071Y006419D01*
X007071Y006464D01*
X007028Y006567D01*
X006949Y006646D01*
X006846Y006689D01*
X005554Y006689D01*
X005451Y006646D01*
X005372Y006567D01*
X005329Y006464D01*
X005329Y005369D01*
X005372Y005266D01*
X005451Y005187D01*
X005554Y005144D01*
X005720Y005144D01*
X005720Y004695D01*
X005635Y004660D01*
X005556Y004581D01*
X005513Y004478D01*
X005513Y003422D01*
X005513Y003631D02*
X005211Y003631D01*
X005197Y003611D02*
X005245Y003677D01*
X005282Y003750D01*
X005307Y003828D01*
X005320Y003909D01*
X005320Y003950D01*
X004500Y003950D01*
X004500Y003950D01*
X004500Y003430D01*
X004841Y003430D01*
X004922Y003443D01*
X005000Y003468D01*
X005073Y003505D01*
X005139Y003553D01*
X005197Y003611D01*
X005314Y003870D02*
X005513Y003870D01*
X005513Y004108D02*
X005295Y004108D01*
X005139Y004347D02*
X005513Y004347D01*
X005560Y004585D02*
X005255Y004585D01*
X005375Y004824D02*
X005720Y004824D01*
X005720Y005062D02*
X005380Y005062D01*
X005358Y005301D02*
X005270Y005301D01*
X005329Y005539D02*
X004980Y005539D01*
X004980Y005778D02*
X005329Y005778D01*
X005329Y006016D02*
X004980Y006016D01*
X004980Y006255D02*
X005329Y006255D01*
X005341Y006493D02*
X004980Y006493D01*
X005210Y006732D02*
X007166Y006732D01*
X007170Y006970D02*
X005449Y006970D01*
X005687Y007209D02*
X007212Y007209D01*
X007170Y007447D02*
X007071Y007447D01*
X007071Y007686D02*
X007151Y007686D01*
X007110Y007924D02*
X007071Y007924D01*
X007071Y008163D02*
X007129Y008163D01*
X007071Y008401D02*
X008604Y008401D01*
X008581Y008424D02*
X008637Y008369D01*
X008701Y008322D01*
X008771Y008287D01*
X008846Y008262D01*
X008923Y008250D01*
X008963Y008250D01*
X008963Y008750D01*
X008963Y008750D01*
X008963Y008750D01*
X008963Y009250D01*
X008923Y009250D01*
X008846Y009238D01*
X008771Y009213D01*
X008701Y009178D01*
X008637Y009131D01*
X008581Y009076D01*
X008535Y009012D01*
X008499Y008942D01*
X008475Y008867D01*
X008463Y008789D01*
X008463Y008750D01*
X008463Y008711D01*
X008475Y008633D01*
X008499Y008558D01*
X008535Y008488D01*
X008581Y008424D01*
X008474Y008640D02*
X007023Y008640D01*
X007279Y009355D02*
X010689Y009355D01*
X010451Y009117D02*
X010310Y009117D01*
X010150Y008750D02*
X009750Y008750D01*
X010150Y008750D02*
X010400Y008500D01*
X011400Y009500D01*
X012000Y009500D01*
X012226Y009274D01*
X012500Y009274D01*
X012376Y009274D01*
X011925Y009010D02*
X011925Y008962D01*
X011967Y008860D01*
X011991Y008836D01*
X011985Y008811D01*
X011985Y008534D01*
X012492Y008534D01*
X012492Y008518D01*
X011985Y008518D01*
X011985Y008487D01*
X011827Y008645D01*
X011621Y008730D01*
X011399Y008730D01*
X011193Y008645D01*
X011035Y008487D01*
X010950Y008281D01*
X010950Y008059D01*
X011035Y007853D01*
X011112Y007776D01*
X011035Y007700D01*
X010950Y007494D01*
X010950Y007271D01*
X011035Y007065D01*
X011112Y006989D01*
X011035Y006912D01*
X010950Y006707D01*
X010950Y006484D01*
X011035Y006278D01*
X011112Y006201D01*
X011035Y006125D01*
X010950Y005919D01*
X010950Y005696D01*
X011035Y005491D01*
X011193Y005333D01*
X011399Y005248D01*
X011621Y005248D01*
X011827Y005333D01*
X011985Y005491D01*
X012070Y005696D01*
X012070Y005859D01*
X012901Y006690D01*
X013172Y006690D01*
X013304Y006745D01*
X013405Y006846D01*
X013806Y007247D01*
X014297Y007247D01*
X014297Y006756D01*
X012894Y005353D01*
X012829Y005380D01*
X012606Y005380D01*
X012401Y005295D01*
X012243Y005137D01*
X012158Y004931D01*
X012158Y004709D01*
X012243Y004503D01*
X012401Y004345D01*
X012606Y004260D01*
X012829Y004260D01*
X013035Y004345D01*
X013111Y004422D01*
X013188Y004345D01*
X013394Y004260D01*
X013617Y004260D01*
X013822Y004345D01*
X013899Y004422D01*
X013975Y004345D01*
X014181Y004260D01*
X014404Y004260D01*
X014610Y004345D01*
X014686Y004422D01*
X014763Y004345D01*
X014969Y004260D01*
X015191Y004260D01*
X015397Y004345D01*
X015540Y004488D01*
X015540Y003782D01*
X015249Y004073D01*
X015088Y004140D01*
X011987Y004140D01*
X011987Y004478D01*
X011944Y004581D01*
X011865Y004660D01*
X011762Y004702D01*
X011104Y004702D01*
X010660Y005147D01*
X010660Y005801D01*
X010617Y005904D01*
X010564Y005957D01*
X010564Y005992D01*
X010649Y006077D01*
X010773Y006201D01*
X010840Y006362D01*
X010840Y008374D01*
X011566Y009100D01*
X011834Y009100D01*
X011887Y009047D01*
X011925Y009010D01*
X011960Y008878D02*
X011344Y008878D01*
X011188Y008640D02*
X011105Y008640D01*
X011000Y008401D02*
X010867Y008401D01*
X010840Y008163D02*
X010950Y008163D01*
X011006Y007924D02*
X010840Y007924D01*
X010840Y007686D02*
X011029Y007686D01*
X010950Y007447D02*
X010840Y007447D01*
X010840Y007209D02*
X010976Y007209D01*
X011093Y006970D02*
X010840Y006970D01*
X010840Y006732D02*
X010960Y006732D01*
X010950Y006493D02*
X010840Y006493D01*
X010795Y006255D02*
X011059Y006255D01*
X010990Y006016D02*
X010588Y006016D01*
X010660Y005778D02*
X010950Y005778D01*
X011015Y005539D02*
X010660Y005539D01*
X010660Y005301D02*
X011271Y005301D01*
X011749Y005301D02*
X012414Y005301D01*
X012212Y005062D02*
X010745Y005062D01*
X010983Y004824D02*
X012158Y004824D01*
X012209Y004585D02*
X011940Y004585D01*
X011987Y004347D02*
X012399Y004347D01*
X013036Y004347D02*
X013187Y004347D01*
X013824Y004347D02*
X013974Y004347D01*
X014611Y004347D02*
X014762Y004347D01*
X015398Y004347D02*
X015540Y004347D01*
X015540Y004108D02*
X015165Y004108D01*
X015453Y003870D02*
X015540Y003870D01*
X013080Y005539D02*
X012005Y005539D01*
X012070Y005778D02*
X013318Y005778D01*
X013557Y006016D02*
X012227Y006016D01*
X012466Y006255D02*
X013795Y006255D01*
X014034Y006493D02*
X012704Y006493D01*
X013272Y006732D02*
X014272Y006732D01*
X014297Y006970D02*
X013529Y006970D01*
X013768Y007209D02*
X014297Y007209D01*
X014542Y007492D02*
X014542Y007779D01*
X014540Y007783D01*
X014542Y007786D01*
X014542Y008094D01*
X014540Y008098D01*
X014542Y008101D01*
X014542Y008409D01*
X014540Y008413D01*
X014542Y008416D01*
X014542Y008724D01*
X014502Y008820D01*
X015093Y008820D01*
X015350Y008563D01*
X015489Y008505D01*
X017640Y008505D01*
X017640Y007810D01*
X015828Y007810D01*
X015696Y007755D01*
X015595Y007654D01*
X015540Y007522D01*
X015540Y007492D01*
X015466Y007492D01*
X015463Y007490D01*
X015459Y007492D01*
X015151Y007492D01*
X015148Y007490D01*
X015144Y007492D01*
X014836Y007492D01*
X014833Y007490D01*
X014829Y007492D01*
X014542Y007492D01*
X014542Y007686D02*
X015626Y007686D01*
X014542Y007924D02*
X017640Y007924D01*
X017640Y008163D02*
X014542Y008163D01*
X014542Y008401D02*
X017640Y008401D01*
X017998Y009265D02*
X015852Y009265D01*
X016780Y010193D01*
X016887Y010300D01*
X016945Y010439D01*
X016945Y010908D01*
X017034Y010908D01*
X017037Y010910D01*
X017041Y010908D01*
X017349Y010908D01*
X017352Y010910D01*
X017356Y010908D01*
X017664Y010908D01*
X017667Y010910D01*
X017671Y010908D01*
X017958Y010908D01*
X017958Y010621D01*
X017960Y010617D01*
X017958Y010614D01*
X017958Y010306D01*
X017960Y010302D01*
X017958Y010299D01*
X017958Y009991D01*
X017960Y009987D01*
X017958Y009984D01*
X017958Y009676D01*
X017960Y009672D01*
X017958Y009669D01*
X017958Y009361D01*
X017998Y009265D01*
X017961Y009355D02*
X015942Y009355D01*
X016181Y009594D02*
X017958Y009594D01*
X017958Y009832D02*
X016419Y009832D01*
X016658Y010071D02*
X017958Y010071D01*
X017958Y010309D02*
X016891Y010309D01*
X016945Y010548D02*
X017958Y010548D01*
X017958Y010786D02*
X016945Y010786D01*
X016185Y010786D02*
X014542Y010786D01*
X014542Y010908D02*
X014829Y010908D01*
X014833Y010910D01*
X014836Y010908D01*
X015144Y010908D01*
X015148Y010910D01*
X015151Y010908D01*
X015459Y010908D01*
X015463Y010910D01*
X015466Y010908D01*
X015774Y010908D01*
X015778Y010910D01*
X015781Y010908D01*
X016089Y010908D01*
X016185Y010948D01*
X016185Y010672D01*
X015093Y009580D01*
X014542Y009580D01*
X014542Y009669D01*
X014540Y009672D01*
X014542Y009676D01*
X014542Y009984D01*
X014540Y009987D01*
X014542Y009991D01*
X014542Y010299D01*
X014540Y010302D01*
X014542Y010306D01*
X014542Y010614D01*
X014540Y010617D01*
X014542Y010621D01*
X014542Y010908D01*
X014542Y010548D02*
X016060Y010548D01*
X015822Y010309D02*
X014542Y010309D01*
X014542Y010071D02*
X015583Y010071D01*
X015345Y009832D02*
X014542Y009832D01*
X014542Y009594D02*
X015106Y009594D01*
X015273Y008640D02*
X014542Y008640D01*
X011985Y008640D02*
X011832Y008640D01*
X010400Y008500D02*
X010400Y008450D01*
X009325Y009117D02*
X009303Y009117D01*
X008963Y009117D02*
X008963Y009117D01*
X008963Y008878D02*
X008963Y008878D01*
X008963Y008750D02*
X008963Y008750D01*
X008463Y008750D01*
X008963Y008750D01*
X008963Y008640D02*
X008963Y008640D01*
X008963Y008401D02*
X008963Y008401D01*
X009069Y008163D02*
X008431Y008163D01*
X008450Y007924D02*
X009050Y007924D01*
X009091Y007686D02*
X008409Y007686D01*
X008390Y007447D02*
X009110Y007447D01*
X009152Y007209D02*
X008348Y007209D01*
X008390Y006970D02*
X009110Y006970D01*
X009106Y006732D02*
X008394Y006732D01*
X008450Y006493D02*
X009050Y006493D01*
X009062Y006255D02*
X008438Y006255D01*
X008409Y005965D02*
X008132Y005965D01*
X008132Y005458D01*
X008600Y005458D01*
X008600Y005774D01*
X008585Y005830D01*
X008556Y005880D01*
X008515Y005921D01*
X008465Y005950D01*
X008409Y005965D01*
X008599Y005778D02*
X008901Y005778D01*
X009368Y005778D02*
X009384Y005778D01*
X009532Y006016D02*
X008025Y006016D01*
X008116Y005778D02*
X008132Y005778D01*
X008116Y005539D02*
X008132Y005539D01*
X008116Y005301D02*
X008132Y005301D01*
X008116Y005062D02*
X008132Y005062D01*
X007797Y004824D02*
X009746Y004824D01*
X009767Y004642D02*
X009382Y004642D01*
X009382Y004066D01*
X009958Y004066D01*
X009958Y004451D01*
X009943Y004507D01*
X009914Y004558D01*
X009873Y004598D01*
X009823Y004627D01*
X009767Y004642D01*
X009887Y004585D02*
X009977Y004585D01*
X009958Y004347D02*
X010215Y004347D01*
X010454Y004108D02*
X009958Y004108D01*
X009958Y003834D02*
X009382Y003834D01*
X009382Y004066D01*
X009150Y004066D01*
X009150Y004642D01*
X008764Y004642D01*
X008750Y004639D01*
X008736Y004642D01*
X008350Y004642D01*
X008350Y004066D01*
X008118Y004066D01*
X008118Y003834D01*
X007542Y003834D01*
X007542Y003449D01*
X007557Y003393D01*
X007586Y003342D01*
X007627Y003302D01*
X007677Y003273D01*
X007733Y003258D01*
X008118Y003258D01*
X008118Y003834D01*
X008350Y003834D01*
X008350Y003258D01*
X008736Y003258D01*
X008750Y003261D01*
X008764Y003258D01*
X009150Y003258D01*
X009150Y003834D01*
X009382Y003834D01*
X009382Y003258D01*
X009767Y003258D01*
X009823Y003273D01*
X009873Y003302D01*
X009914Y003342D01*
X009943Y003393D01*
X009958Y003449D01*
X009958Y003834D01*
X009958Y003631D02*
X010482Y003631D01*
X010482Y003870D02*
X009382Y003870D01*
X009150Y003870D02*
X008350Y003870D01*
X008350Y003834D02*
X008350Y004066D01*
X009150Y004066D01*
X009150Y003834D01*
X008573Y003834D01*
X008350Y003834D01*
X008350Y003631D02*
X008118Y003631D01*
X008118Y003870D02*
X007018Y003870D01*
X007018Y003631D02*
X007542Y003631D01*
X007557Y003393D02*
X007006Y003393D01*
X008118Y003393D02*
X008350Y003393D01*
X009150Y003393D02*
X009382Y003393D01*
X009382Y003631D02*
X009150Y003631D01*
X009150Y004108D02*
X009382Y004108D01*
X009382Y004347D02*
X009150Y004347D01*
X009150Y004585D02*
X009382Y004585D01*
X009368Y004935D02*
X009091Y004935D01*
X009035Y004950D01*
X008985Y004979D01*
X008944Y005020D01*
X008915Y005070D01*
X008900Y005126D01*
X008900Y005442D01*
X009368Y005442D01*
X009368Y004935D01*
X009368Y005062D02*
X009384Y005062D01*
X009368Y005301D02*
X009384Y005301D01*
X009368Y005539D02*
X009384Y005539D01*
X008900Y005539D02*
X008600Y005539D01*
X008600Y005301D02*
X008900Y005301D01*
X008920Y005062D02*
X008580Y005062D01*
X008350Y004585D02*
X008118Y004585D01*
X008118Y004642D02*
X007733Y004642D01*
X007677Y004627D01*
X007627Y004598D01*
X007586Y004558D01*
X007557Y004507D01*
X007542Y004451D01*
X007542Y004066D01*
X008118Y004066D01*
X008118Y004642D01*
X008118Y004347D02*
X008350Y004347D01*
X008350Y004108D02*
X008118Y004108D01*
X007542Y004108D02*
X007103Y004108D01*
X007341Y004347D02*
X007542Y004347D01*
X007580Y004585D02*
X007613Y004585D01*
X009943Y003393D02*
X010494Y003393D01*
X007110Y006493D02*
X007059Y006493D01*
X007780Y006970D02*
X007780Y006970D01*
X007780Y007209D02*
X007780Y007209D01*
X007780Y007447D02*
X007780Y007447D01*
X009720Y007447D02*
X009720Y007447D01*
X009720Y007209D02*
X009720Y007209D01*
X009720Y006970D02*
X009720Y006970D01*
X008478Y008878D02*
X005030Y008878D01*
X005030Y008640D02*
X005377Y008640D01*
X005329Y008401D02*
X005030Y008401D01*
X005030Y008163D02*
X005284Y008163D01*
X005045Y007924D02*
X005030Y007924D01*
X003970Y007924D02*
X003270Y007924D01*
X003270Y008163D02*
X003970Y008163D01*
X003970Y008401D02*
X003270Y008401D01*
X003270Y008640D02*
X003970Y008640D01*
X003970Y008878D02*
X003270Y008878D01*
X003270Y009117D02*
X003970Y009117D01*
X003970Y009355D02*
X003270Y009355D01*
X003270Y009594D02*
X003970Y009594D01*
X003748Y009832D02*
X003270Y009832D01*
X003270Y010071D02*
X003626Y010071D01*
X003620Y010309D02*
X003270Y010309D01*
X003270Y010548D02*
X003727Y010548D01*
X003794Y010786D02*
X003270Y010786D01*
X003270Y011025D02*
X003645Y011025D01*
X003620Y011263D02*
X003270Y011263D01*
X003270Y011502D02*
X003697Y011502D01*
X003840Y011740D02*
X003270Y011740D01*
X003270Y011979D02*
X003664Y011979D01*
X003620Y012217D02*
X003270Y012217D01*
X003270Y012456D02*
X003678Y012456D01*
X003877Y012694D02*
X003270Y012694D01*
X003270Y012933D02*
X003683Y012933D01*
X003620Y013171D02*
X003270Y013171D01*
X003270Y013410D02*
X003659Y013410D01*
X003828Y013648D02*
X003270Y013648D01*
X003270Y013887D02*
X004758Y013887D01*
X004996Y014125D02*
X003270Y014125D01*
X003270Y014364D02*
X005235Y014364D01*
X005473Y014602D02*
X003270Y014602D01*
X003270Y014841D02*
X003334Y014841D01*
X004166Y014841D02*
X006448Y014841D01*
X006933Y014841D02*
X006933Y014841D01*
X006933Y014991D02*
X006933Y014574D01*
X006933Y014574D01*
X006933Y014991D01*
X007418Y014841D02*
X007650Y014841D01*
X007650Y014602D02*
X007429Y014602D01*
X007429Y014574D02*
X006933Y014574D01*
X006933Y014574D01*
X007429Y014574D01*
X007429Y014364D02*
X007669Y014364D01*
X008118Y014841D02*
X008134Y014841D01*
X008118Y015079D02*
X008134Y015079D01*
X007651Y015079D02*
X004477Y015079D01*
X004623Y015318D02*
X008544Y015318D01*
X009204Y015318D02*
X011538Y015318D01*
X011410Y015079D02*
X009410Y015079D01*
X009410Y014841D02*
X011403Y014841D01*
X011519Y014602D02*
X009410Y014602D01*
X009884Y014364D02*
X011827Y014364D01*
X012066Y014125D02*
X010834Y014125D01*
X011073Y013887D02*
X012304Y013887D01*
X012543Y013648D02*
X011311Y013648D01*
X011550Y013410D02*
X012130Y013410D01*
X011970Y013171D02*
X011788Y013171D01*
X011860Y012933D02*
X011940Y012933D01*
X012015Y012694D02*
X011860Y012694D01*
X011860Y012456D02*
X012000Y012456D01*
X011140Y012456D02*
X009816Y012456D01*
X009789Y012483D02*
X009686Y012525D01*
X009410Y012525D01*
X009410Y013101D01*
X009367Y013204D01*
X009289Y013283D01*
X009186Y013325D01*
X008562Y013325D01*
X008460Y013283D01*
X008436Y013259D01*
X008411Y013265D01*
X008134Y013265D01*
X008134Y012758D01*
X008118Y012758D01*
X008118Y013265D01*
X007841Y013265D01*
X007785Y013250D01*
X007735Y013221D01*
X007694Y013180D01*
X007665Y013130D01*
X007650Y013074D01*
X007650Y012758D01*
X008118Y012758D01*
X008118Y012742D01*
X007650Y012742D01*
X007650Y012426D01*
X007665Y012370D01*
X007694Y012320D01*
X007704Y012310D01*
X007428Y012310D01*
X007417Y012305D01*
X007429Y012348D01*
X007429Y012574D01*
X007429Y012800D01*
X007414Y012856D01*
X007385Y012906D01*
X007344Y012947D01*
X007294Y012976D01*
X007238Y012991D01*
X006933Y012991D01*
X006629Y012991D01*
X006573Y012976D01*
X006522Y012947D01*
X006481Y012906D01*
X006452Y012856D01*
X006437Y012800D01*
X006437Y012661D01*
X006398Y012677D01*
X006170Y012677D01*
X006162Y012680D01*
X005140Y012680D01*
X005129Y012692D01*
X005109Y012700D01*
X005129Y012708D01*
X005292Y012871D01*
X005380Y013085D01*
X005380Y013151D01*
X005949Y013720D01*
X006162Y013720D01*
X006170Y013723D01*
X006377Y013723D01*
X006377Y013573D01*
X006420Y013471D01*
X006499Y013392D01*
X006602Y013349D01*
X007264Y013349D01*
X007367Y013392D01*
X007441Y013466D01*
X007448Y013466D01*
X007580Y013521D01*
X007649Y013590D01*
X008094Y013590D01*
X008133Y013496D01*
X008211Y013417D01*
X008314Y013375D01*
X008938Y013375D01*
X009000Y013401D01*
X009062Y013375D01*
X009686Y013375D01*
X009789Y013417D01*
X009867Y013496D01*
X009906Y013590D01*
X010351Y013590D01*
X011140Y012801D01*
X011140Y012128D01*
X011195Y011996D01*
X011981Y011210D01*
X011829Y011210D01*
X010885Y012154D01*
X010784Y012255D01*
X010652Y012310D01*
X009906Y012310D01*
X009867Y012404D01*
X009789Y012483D01*
X009410Y012694D02*
X011140Y012694D01*
X011008Y012933D02*
X009410Y012933D01*
X009381Y013171D02*
X010770Y013171D01*
X010531Y013410D02*
X009770Y013410D01*
X008230Y013410D02*
X007385Y013410D01*
X007689Y013171D02*
X005400Y013171D01*
X005317Y012933D02*
X006508Y012933D01*
X006437Y012694D02*
X005123Y012694D01*
X005638Y013410D02*
X006481Y013410D01*
X006377Y013648D02*
X005877Y013648D01*
X006933Y012991D02*
X006933Y012574D01*
X006933Y012574D01*
X006933Y012991D01*
X006933Y012933D02*
X006933Y012933D01*
X007358Y012933D02*
X007650Y012933D01*
X008118Y012933D02*
X008134Y012933D01*
X008118Y013171D02*
X008134Y013171D01*
X007650Y012694D02*
X007429Y012694D01*
X007429Y012574D02*
X006933Y012574D01*
X006933Y012574D01*
X007429Y012574D01*
X007429Y012456D02*
X007650Y012456D01*
X006933Y012694D02*
X006933Y012694D01*
X006377Y011723D02*
X006170Y011723D01*
X006162Y011720D01*
X005140Y011720D01*
X005129Y011708D01*
X005109Y011700D01*
X005129Y011692D01*
X005292Y011529D01*
X005380Y011315D01*
X005380Y011249D01*
X005949Y010680D01*
X006162Y010680D01*
X006170Y010677D01*
X006398Y010677D01*
X006437Y010661D01*
X006437Y010800D01*
X006452Y010856D01*
X006481Y010906D01*
X006522Y010947D01*
X006573Y010976D01*
X006629Y010991D01*
X006933Y010991D01*
X006933Y010574D01*
X006933Y010574D01*
X006933Y010991D01*
X007238Y010991D01*
X007294Y010976D01*
X007344Y010947D01*
X007385Y010906D01*
X007414Y010856D01*
X007429Y010800D01*
X007429Y010574D01*
X006933Y010574D01*
X006933Y010574D01*
X007429Y010574D01*
X007429Y010348D01*
X007417Y010305D01*
X007428Y010310D01*
X007704Y010310D01*
X007694Y010320D01*
X007665Y010370D01*
X007650Y010426D01*
X007650Y010742D01*
X008118Y010742D01*
X008118Y010758D01*
X008118Y011265D01*
X007841Y011265D01*
X007785Y011250D01*
X007735Y011221D01*
X007694Y011180D01*
X007665Y011130D01*
X007650Y011074D01*
X007650Y010758D01*
X008118Y010758D01*
X008134Y010758D01*
X008134Y011265D01*
X008411Y011265D01*
X008436Y011259D01*
X008460Y011283D01*
X008562Y011325D01*
X009186Y011325D01*
X009289Y011283D01*
X009367Y011204D01*
X009410Y011101D01*
X009410Y010525D01*
X009686Y010525D01*
X009789Y010483D01*
X009867Y010404D01*
X009906Y010310D01*
X011910Y010310D01*
X011910Y010401D01*
X011947Y010490D01*
X011608Y010490D01*
X011476Y010545D01*
X010431Y011590D01*
X009906Y011590D01*
X009867Y011496D01*
X009789Y011417D01*
X009686Y011375D01*
X009062Y011375D01*
X009000Y011401D01*
X008938Y011375D01*
X008314Y011375D01*
X008211Y011417D01*
X008133Y011496D01*
X008094Y011590D01*
X007649Y011590D01*
X007580Y011521D01*
X007448Y011466D01*
X007441Y011466D01*
X007367Y011392D01*
X007264Y011349D01*
X006602Y011349D01*
X006499Y011392D01*
X006420Y011471D01*
X006377Y011573D01*
X006377Y011723D01*
X006407Y011502D02*
X005303Y011502D01*
X005380Y011263D02*
X007833Y011263D01*
X008118Y011263D02*
X008134Y011263D01*
X008118Y011025D02*
X008134Y011025D01*
X008118Y010786D02*
X008134Y010786D01*
X007650Y010786D02*
X007429Y010786D01*
X007650Y011025D02*
X005604Y011025D01*
X005843Y010786D02*
X006437Y010786D01*
X006933Y010786D02*
X006933Y010786D01*
X007429Y010548D02*
X007650Y010548D01*
X007426Y010309D02*
X007418Y010309D01*
X006377Y009594D02*
X005030Y009594D01*
X005030Y009355D02*
X006588Y009355D01*
X005439Y009832D02*
X005252Y009832D01*
X005030Y009117D02*
X008622Y009117D01*
X009410Y010548D02*
X011473Y010548D01*
X011235Y010786D02*
X009410Y010786D01*
X009410Y011025D02*
X010996Y011025D01*
X010758Y011263D02*
X009308Y011263D01*
X009870Y011502D02*
X010519Y011502D01*
X011061Y011979D02*
X011212Y011979D01*
X011299Y011740D02*
X011451Y011740D01*
X011538Y011502D02*
X011689Y011502D01*
X011776Y011263D02*
X011928Y011263D01*
X010885Y012154D02*
X010885Y012154D01*
X010822Y012217D02*
X011140Y012217D01*
X008440Y011263D02*
X008419Y011263D01*
X008130Y011502D02*
X007533Y011502D01*
X006933Y014602D02*
X006933Y014602D01*
X004703Y015556D02*
X018842Y015556D01*
X018840Y015318D02*
X017066Y015318D01*
X017236Y015079D02*
X018840Y015079D01*
X018844Y014841D02*
X017283Y014841D01*
X017334Y014602D02*
X018893Y014602D01*
X018547Y014364D02*
X017334Y014364D01*
X017334Y014125D02*
X018316Y014125D01*
X018077Y013887D02*
X017334Y013887D01*
X017413Y013648D02*
X017839Y013648D01*
X017600Y013410D02*
X017510Y013410D01*
X016614Y013887D02*
X014946Y013887D01*
X014946Y014125D02*
X016614Y014125D01*
X016590Y014364D02*
X014970Y014364D01*
X015295Y014602D02*
X016265Y014602D01*
X016190Y014841D02*
X015370Y014841D01*
X015336Y015079D02*
X016224Y015079D01*
X016394Y015318D02*
X015166Y015318D01*
X014494Y015318D02*
X013174Y015318D01*
X013303Y015079D02*
X014324Y015079D01*
X014277Y014841D02*
X013310Y014841D01*
X013194Y014602D02*
X014226Y014602D01*
X014226Y014364D02*
X013346Y014364D01*
X013584Y014125D02*
X014226Y014125D01*
X014226Y013887D02*
X013823Y013887D01*
X014058Y013648D02*
X014147Y013648D01*
X015326Y013648D02*
X015342Y013648D01*
X015646Y013648D02*
X015914Y013648D01*
X016218Y013648D02*
X016234Y013648D01*
X016218Y013410D02*
X016234Y013410D01*
X016218Y013171D02*
X016234Y013171D01*
X016218Y013148D02*
X016218Y013132D01*
X015342Y013132D01*
X015342Y013148D01*
X015810Y013148D01*
X016218Y013148D01*
X015342Y013171D02*
X015326Y013171D01*
X015326Y013410D02*
X015342Y013410D01*
X018109Y011989D02*
X018209Y012090D01*
X018568Y012090D01*
X018683Y011975D01*
X018889Y011890D01*
X019111Y011890D01*
X019317Y011975D01*
X019394Y012052D01*
X019407Y012038D01*
X019407Y011337D01*
X019465Y011197D01*
X019870Y010793D01*
X019870Y010607D01*
X019511Y010248D01*
X019404Y010141D01*
X019346Y010002D01*
X019346Y009687D01*
X019311Y009673D01*
X019233Y009594D01*
X019190Y009491D01*
X019190Y009265D01*
X019069Y009265D01*
X019109Y009361D01*
X019109Y009669D01*
X019107Y009672D01*
X019109Y009676D01*
X019109Y009984D01*
X019107Y009987D01*
X019109Y009991D01*
X019109Y010299D01*
X019107Y010302D01*
X019109Y010306D01*
X019109Y010614D01*
X019107Y010617D01*
X019109Y010621D01*
X019109Y010929D01*
X019066Y011032D01*
X018987Y011111D01*
X018897Y011148D01*
X018939Y011190D01*
X019017Y011381D01*
X019017Y011586D01*
X018939Y011777D01*
X018793Y011922D01*
X018603Y012001D01*
X018397Y012001D01*
X018207Y011922D01*
X018179Y011894D01*
X018161Y011937D01*
X018109Y011989D01*
X018119Y011979D02*
X018343Y011979D01*
X018657Y011979D02*
X018680Y011979D01*
X018954Y011740D02*
X019407Y011740D01*
X019407Y011502D02*
X019017Y011502D01*
X018969Y011263D02*
X019438Y011263D01*
X019638Y011025D02*
X019069Y011025D01*
X019109Y010786D02*
X019870Y010786D01*
X019810Y010548D02*
X019109Y010548D01*
X019109Y010309D02*
X019572Y010309D01*
X019375Y010071D02*
X019109Y010071D01*
X019109Y009832D02*
X019346Y009832D01*
X019233Y009594D02*
X019109Y009594D01*
X019106Y009355D02*
X019190Y009355D01*
X020169Y009832D02*
X020640Y009832D01*
X020482Y009594D02*
X020466Y009594D01*
X020466Y009355D02*
X020482Y009355D01*
X020408Y010071D02*
X020640Y010071D01*
X020655Y010309D02*
X020603Y010309D01*
X020630Y010548D02*
X020890Y010548D01*
X020890Y010786D02*
X020630Y010786D01*
X020630Y011025D02*
X020890Y011025D01*
X020890Y011263D02*
X020474Y011263D01*
X020465Y011272D02*
X020465Y011272D01*
X020236Y011502D02*
X020890Y011502D01*
X020890Y011740D02*
X020167Y011740D01*
X020167Y011979D02*
X020890Y011979D01*
X020890Y012217D02*
X020317Y012217D01*
X020556Y012456D02*
X020890Y012456D01*
X020704Y012604D02*
X020704Y012604D01*
X020794Y012694D02*
X020890Y012694D01*
X020890Y012933D02*
X020860Y012933D01*
X020860Y013171D02*
X020890Y013171D01*
X020890Y013410D02*
X020860Y013410D01*
X020860Y013648D02*
X020890Y013648D01*
X020890Y013887D02*
X020860Y013887D01*
X020860Y014125D02*
X020890Y014125D01*
X020890Y014364D02*
X020860Y014364D01*
X020860Y014602D02*
X020890Y014602D01*
X020890Y014841D02*
X020860Y014841D01*
X020890Y015079D02*
X020754Y015079D01*
X020660Y015318D02*
X020890Y015318D01*
X020890Y015556D02*
X020658Y015556D01*
X020890Y015795D02*
X004703Y015795D01*
X004644Y016033D02*
X020890Y016033D01*
X020140Y014625D02*
X019812Y014625D01*
X019750Y014651D01*
X019736Y014645D01*
X019736Y014523D01*
X019748Y014525D01*
X019787Y014525D01*
X019787Y014025D01*
X019787Y014025D01*
X019787Y014525D01*
X019827Y014525D01*
X019904Y014512D01*
X019979Y014488D01*
X020049Y014452D01*
X020113Y014406D01*
X020140Y014379D01*
X020140Y014625D01*
X020140Y014602D02*
X019736Y014602D01*
X019787Y014364D02*
X019787Y014364D01*
X019787Y014125D02*
X019787Y014125D01*
X019407Y011979D02*
X019320Y011979D01*
X004500Y003950D02*
X004500Y003950D01*
X004500Y003950D01*
X004500Y003430D01*
X004159Y003430D01*
X004078Y003443D01*
X004000Y003468D01*
X003927Y003505D01*
X003861Y003553D01*
X003803Y003611D01*
X003755Y003677D01*
X003718Y003750D01*
X003693Y003828D01*
X003680Y003909D01*
X003680Y003950D01*
X004500Y003950D01*
X004500Y003870D02*
X004500Y003870D01*
X004500Y003631D02*
X004500Y003631D01*
X003789Y003631D02*
X003270Y003631D01*
X003270Y003870D02*
X003686Y003870D01*
X003705Y004108D02*
X003270Y004108D01*
X003270Y004347D02*
X003861Y004347D01*
X003745Y004585D02*
X003270Y004585D01*
X003270Y004824D02*
X003625Y004824D01*
X003620Y005062D02*
X003270Y005062D01*
X003270Y005301D02*
X003430Y005301D01*
X003370Y005539D02*
X003270Y005539D01*
X003270Y005778D02*
X003370Y005778D01*
X003370Y006016D02*
X003270Y006016D01*
X003270Y006255D02*
X003370Y006255D01*
X003370Y006493D02*
X003270Y006493D01*
X003270Y006732D02*
X003370Y006732D01*
X003370Y006970D02*
X003270Y006970D01*
X003270Y007209D02*
X003392Y007209D01*
X003270Y007447D02*
X003547Y007447D01*
X003786Y007686D02*
X003270Y007686D01*
D27*
X003500Y008200D03*
X006000Y009200D03*
X007750Y008900D03*
X010350Y009350D03*
X011690Y008910D03*
X008750Y007200D03*
X006200Y006950D03*
X005560Y004900D03*
X008740Y004900D03*
X008750Y002950D03*
X007250Y002950D03*
X010250Y002950D03*
X012250Y002990D03*
X014740Y002930D03*
X017340Y004320D03*
X019940Y004200D03*
X021930Y004450D03*
X022050Y002950D03*
X026500Y004950D03*
X026500Y005950D03*
X026500Y006950D03*
X026500Y008200D03*
X023500Y008950D03*
X020750Y008200D03*
X020430Y009830D03*
X019500Y010700D03*
X018500Y011483D03*
X020710Y011730D03*
X023250Y012700D03*
X027250Y010200D03*
X030750Y009450D03*
X030750Y005950D03*
X029250Y005950D03*
X029250Y003450D03*
X026840Y003100D03*
X022500Y005950D03*
X021750Y006450D03*
X018590Y006390D03*
X015000Y007950D03*
X017500Y009450D03*
X015000Y010450D03*
X010000Y010700D03*
X007400Y011200D03*
X006000Y011200D03*
X006000Y013200D03*
X007400Y013200D03*
X010000Y012700D03*
X010000Y014700D03*
X007400Y015200D03*
X006000Y015200D03*
X015750Y014200D03*
X012980Y006100D03*
D28*
X014250Y007200D02*
X015000Y007950D01*
X015000Y008450D01*
X014565Y008885D01*
X013967Y008885D01*
X013275Y008885D01*
X012916Y008526D01*
X012500Y008526D01*
X012574Y009200D02*
X012500Y009274D01*
X012574Y009200D02*
X013967Y009200D01*
X015250Y009200D01*
X015565Y008885D01*
X018533Y008885D01*
X019471Y008885D01*
X019726Y009140D01*
X019726Y009926D01*
X020250Y010450D01*
X020250Y010950D01*
X019787Y011413D01*
X019787Y012450D01*
X016565Y011483D02*
X016565Y010515D01*
X015250Y009200D01*
X015000Y010450D02*
X015750Y010450D01*
X016250Y010950D01*
X016250Y011483D01*
X019140Y010090D02*
X019374Y010324D01*
X019140Y010090D02*
X019140Y009370D01*
X018970Y009200D01*
X018533Y009200D01*
X017750Y009200D01*
X017500Y009450D01*
X021000Y007450D02*
X021000Y005218D01*
X021768Y005218D01*
X022000Y005450D01*
X023750Y005450D01*
X024124Y005824D01*
X024124Y005950D01*
X025476Y005950D01*
X026500Y005950D02*
X027524Y005950D01*
X029250Y005950D01*
X025626Y009600D02*
X025626Y010100D01*
X025626Y010600D01*
X023250Y010826D02*
X022924Y010500D01*
X022924Y009374D01*
X021000Y007450D01*
X017600Y005974D02*
X017600Y005794D01*
X017600Y005974D02*
X017184Y006390D01*
X016690Y006390D01*
X016565Y006515D01*
X016565Y006917D01*
X016250Y006917D02*
X016250Y006350D01*
X016510Y006090D01*
X016890Y006090D01*
X017040Y005940D01*
X017040Y005410D01*
X017404Y005046D01*
X017600Y005046D01*
X016500Y005074D02*
X015935Y005639D01*
X015935Y006917D01*
X016124Y005074D02*
X016500Y005074D01*
X016124Y005074D02*
X015950Y004900D01*
X015950Y003950D01*
X016200Y003700D01*
X018050Y003700D01*
X019140Y004790D01*
X019140Y004968D01*
X016250Y002800D02*
X015396Y002800D01*
X015242Y002864D01*
X015124Y002982D01*
X015124Y002982D01*
X014906Y003200D01*
X014280Y003200D01*
X014280Y002965D01*
X013865Y002965D01*
X013865Y002935D01*
X014280Y002935D01*
X014280Y002690D01*
X016250Y002690D01*
X016250Y002800D01*
X016250Y002796D02*
X014280Y002796D01*
X014280Y002994D02*
X015112Y002994D01*
X014914Y003193D02*
X014280Y003193D01*
X023250Y010826D02*
X023250Y011676D01*
D29*
X014300Y002950D02*
X014000Y002950D01*
X013100Y002950D02*
X012800Y002950D01*
D30*
X004750Y003950D02*
X004250Y003950D01*
D31*
X006200Y004016D02*
X006266Y003950D01*
X010124Y005060D02*
X011234Y003950D01*
X011484Y003700D01*
X015000Y003700D01*
X015480Y003220D01*
X018928Y003220D01*
X019140Y003432D01*
X020000Y003432D01*
X020250Y003682D01*
X020232Y003682D01*
X020000Y003450D01*
X020250Y003682D02*
X021000Y003682D01*
X010400Y006450D02*
X010400Y008450D01*
X010400Y006450D02*
X010124Y006174D01*
X010124Y006046D01*
X009720Y006450D01*
X010124Y006046D02*
X010124Y005450D01*
X010124Y005060D01*
D32*
X011510Y005808D02*
X012752Y007050D01*
X013100Y007050D01*
X013675Y007625D01*
X013967Y007625D01*
X013967Y007940D02*
X013590Y007940D01*
X013050Y007400D01*
X012315Y007400D01*
X011510Y006595D01*
X011510Y007383D02*
X011827Y007700D01*
X012950Y007700D01*
X013505Y008255D01*
X013967Y008255D01*
X013967Y008570D02*
X013420Y008570D01*
X012850Y008000D01*
X011680Y008000D01*
X011510Y008170D01*
X012960Y009760D02*
X013205Y009515D01*
X013967Y009515D01*
X013967Y009830D02*
X013320Y009830D01*
X012860Y010290D01*
X012470Y010290D01*
X012060Y009950D02*
X009374Y009950D01*
X008874Y010198D02*
X008626Y009950D01*
X007500Y009950D01*
X007376Y009826D01*
X006933Y009826D01*
X008874Y010198D02*
X008874Y010750D01*
X007500Y011950D02*
X007376Y011826D01*
X006933Y011826D01*
X007500Y011950D02*
X008626Y011950D01*
X008874Y012198D01*
X008874Y012750D01*
X009374Y011950D02*
X010580Y011950D01*
X011680Y010850D01*
X012750Y010850D01*
X013455Y010145D01*
X013967Y010145D01*
X013967Y010460D02*
X013590Y010460D01*
X012850Y011200D01*
X012500Y011200D01*
X011500Y012200D01*
X011500Y012950D01*
X010500Y013950D01*
X009374Y013950D01*
X008874Y014198D02*
X008626Y013950D01*
X007500Y013950D01*
X007376Y013826D01*
X006933Y013826D01*
X008874Y014198D02*
X008874Y014750D01*
X011963Y014950D02*
X012000Y014913D01*
X012000Y014700D01*
X013250Y013450D01*
X013250Y012950D01*
X014190Y012010D01*
X014820Y012010D01*
X014990Y011840D01*
X014990Y011483D01*
X014675Y011483D02*
X014004Y011483D01*
X012500Y012987D01*
X013750Y012950D02*
X013750Y013450D01*
X012750Y014450D01*
X012750Y014950D01*
X014586Y014646D02*
X014830Y014890D01*
X014586Y014646D02*
X014586Y013140D01*
X014586Y012804D01*
X014740Y012650D01*
X015076Y012650D01*
X015620Y012106D01*
X015620Y011483D01*
X015305Y011483D02*
X015305Y012005D01*
X014950Y012360D01*
X014340Y012360D01*
X013750Y012950D01*
X012500Y012200D02*
X013925Y010775D01*
X013967Y010775D01*
X012960Y009760D02*
X012250Y009760D01*
X012060Y009950D01*
X015935Y011483D02*
X015935Y012101D01*
X016484Y012650D01*
X016820Y012650D01*
X016974Y012804D01*
X016974Y013140D01*
X016974Y014646D01*
X016730Y014890D01*
X018725Y014025D02*
X019000Y014025D01*
X019000Y014200D01*
X019376Y014576D01*
X019376Y015200D01*
X020124Y015200D02*
X020500Y014824D01*
X020500Y012909D01*
X020041Y012450D01*
X019787Y012450D01*
X019000Y012450D02*
X018060Y012450D01*
X017510Y011900D01*
X017510Y011483D01*
X017825Y011483D02*
X018500Y011483D01*
X017195Y011483D02*
X017195Y012055D01*
X018045Y012905D01*
X018230Y013090D01*
X018377Y013237D01*
X019000Y013237D01*
X018725Y014025D02*
X016880Y012180D01*
X016880Y011483D01*
X021000Y010200D02*
X021250Y010200D01*
X021250Y015159D01*
X021483Y014926D01*
X021818Y014787D01*
X022182Y014787D01*
X022517Y014926D01*
X022774Y015183D01*
X022913Y015518D01*
X022913Y015882D01*
X022774Y016217D01*
X022771Y016220D01*
X027161Y016220D01*
X027152Y016199D01*
X026239Y016199D01*
X026121Y016150D01*
X025957Y015985D01*
X025570Y015985D01*
X025500Y015956D01*
X025430Y015985D01*
X024822Y015985D01*
X024734Y015949D01*
X024667Y015881D01*
X024630Y015793D01*
X024630Y015107D01*
X024667Y015019D01*
X024734Y014951D01*
X024806Y014921D01*
X024806Y014760D01*
X024855Y014643D01*
X024945Y014553D01*
X025215Y014283D01*
X025215Y014020D01*
X025244Y013950D01*
X025215Y013880D01*
X025215Y013272D01*
X025251Y013184D01*
X025319Y013117D01*
X025407Y013080D01*
X025430Y013080D01*
X025430Y013070D01*
X025407Y013070D01*
X025319Y013033D01*
X025251Y012966D01*
X025221Y012894D01*
X024310Y012894D01*
X024193Y012845D01*
X024103Y012755D01*
X024069Y012721D01*
X023979Y012631D01*
X023930Y012514D01*
X023930Y012344D01*
X023929Y012344D01*
X023930Y012344D02*
X023916Y012349D01*
X023584Y012349D01*
X023500Y012315D01*
X023416Y012349D01*
X023084Y012349D01*
X023000Y012315D01*
X022916Y012349D01*
X022584Y012349D01*
X022500Y012315D01*
X022416Y012349D01*
X022084Y012349D01*
X022000Y012315D01*
X021916Y012349D01*
X021584Y012349D01*
X021496Y012313D01*
X021428Y012245D01*
X021392Y012157D01*
X021392Y011196D01*
X021428Y011107D01*
X021496Y011040D01*
X021584Y011003D01*
X021916Y011003D01*
X022000Y011038D01*
X022084Y011003D01*
X022416Y011003D01*
X022500Y011038D01*
X022564Y011012D01*
X022532Y010999D01*
X022497Y010964D01*
X022456Y010975D01*
X022224Y010975D01*
X022224Y010548D01*
X022128Y010548D01*
X022128Y010975D01*
X021896Y010975D01*
X021851Y010963D01*
X021810Y010939D01*
X021776Y010906D01*
X021752Y010865D01*
X021740Y010819D01*
X021740Y010548D01*
X022128Y010548D01*
X022128Y010452D01*
X022224Y010452D01*
X022224Y010025D01*
X022456Y010025D01*
X022497Y010036D01*
X022532Y010001D01*
X022584Y009980D01*
X022584Y009515D01*
X020807Y007738D01*
X020712Y007643D01*
X020660Y007518D01*
X020660Y005832D01*
X020283Y005832D01*
X020195Y005795D01*
X020127Y005728D01*
X020091Y005639D01*
X020091Y004796D01*
X020127Y004708D01*
X020195Y004640D01*
X020283Y004604D01*
X021717Y004604D01*
X021805Y004640D01*
X021873Y004708D01*
X021909Y004796D01*
X021909Y004908D01*
X021960Y004929D01*
X022141Y005110D01*
X022190Y005110D01*
X022190Y004998D01*
X022578Y004998D01*
X022578Y004902D01*
X022190Y004902D01*
X022190Y004631D01*
X022202Y004585D01*
X022226Y004544D01*
X022260Y004511D01*
X022301Y004487D01*
X022316Y004483D01*
X022234Y004449D01*
X022167Y004381D01*
X022130Y004293D01*
X022130Y003607D01*
X022167Y003519D01*
X022234Y003451D01*
X022322Y003415D01*
X022346Y003415D01*
X022355Y003393D01*
X022445Y003303D01*
X023078Y002670D01*
X015900Y002670D01*
X015900Y002820D01*
X018419Y002820D01*
X018423Y002818D01*
X019857Y002818D01*
X019945Y002855D01*
X020013Y002922D01*
X020049Y003011D01*
X020049Y003032D01*
X020080Y003032D01*
X020225Y003092D01*
X020283Y003068D01*
X021717Y003068D01*
X021805Y003105D01*
X021873Y003172D01*
X021909Y003261D01*
X021909Y004104D01*
X021873Y004192D01*
X021805Y004260D01*
X021717Y004296D01*
X020283Y004296D01*
X020195Y004260D01*
X020127Y004192D01*
X020091Y004104D01*
X020091Y004057D01*
X020006Y004021D01*
X019970Y003985D01*
X019945Y004010D01*
X019857Y004046D01*
X018877Y004046D01*
X019185Y004354D01*
X019857Y004354D01*
X019945Y004390D01*
X020013Y004458D01*
X020049Y004546D01*
X020049Y005389D01*
X020013Y005478D01*
X019945Y005545D01*
X019857Y005582D01*
X018423Y005582D01*
X018335Y005545D01*
X018267Y005478D01*
X018231Y005389D01*
X018231Y004546D01*
X018267Y004458D01*
X018297Y004428D01*
X017909Y004040D01*
X016974Y004040D01*
X016975Y004046D01*
X016975Y004278D01*
X016548Y004278D01*
X016548Y004374D01*
X016975Y004374D01*
X016975Y004606D01*
X016964Y004647D01*
X016999Y004682D01*
X017035Y004770D01*
X017035Y005378D01*
X016999Y005466D01*
X016931Y005533D01*
X016843Y005570D01*
X016485Y005570D01*
X016275Y005780D01*
X016275Y006327D01*
X016277Y006322D01*
X016402Y006197D01*
X016497Y006102D01*
X016622Y006050D01*
X017043Y006050D01*
X017065Y006028D01*
X017065Y005490D01*
X017101Y005402D01*
X017136Y005367D01*
X017125Y005326D01*
X017125Y005094D01*
X017552Y005094D01*
X017552Y004998D01*
X017125Y004998D01*
X017125Y004766D01*
X017137Y004721D01*
X017161Y004680D01*
X017194Y004646D01*
X017235Y004622D01*
X017281Y004610D01*
X017552Y004610D01*
X017552Y004998D01*
X017648Y004998D01*
X017648Y005094D01*
X018075Y005094D01*
X018075Y005326D01*
X018064Y005367D01*
X018099Y005402D01*
X018135Y005490D01*
X018135Y006098D01*
X018099Y006186D01*
X018031Y006253D01*
X017943Y006290D01*
X017765Y006290D01*
X017670Y006385D01*
X017679Y006381D01*
X017971Y006381D01*
X018059Y006418D01*
X018127Y006485D01*
X018163Y006574D01*
X018163Y007260D01*
X018144Y007306D01*
X018190Y007287D01*
X018830Y007287D01*
X018830Y007162D01*
X018879Y007044D01*
X019480Y006443D01*
X019480Y006272D01*
X019559Y006081D01*
X019705Y005934D01*
X019897Y005855D01*
X020103Y005855D01*
X020295Y005934D01*
X020441Y006081D01*
X020520Y006272D01*
X020520Y006479D01*
X020441Y006670D01*
X020342Y006769D01*
X020441Y006868D01*
X020520Y007059D01*
X020520Y007266D01*
X020441Y007457D01*
X020342Y007556D01*
X020441Y007655D01*
X020520Y007847D01*
X020520Y008053D01*
X020441Y008245D01*
X020295Y008391D01*
X020103Y008470D01*
X019933Y008470D01*
X019853Y008550D01*
X021000Y008550D01*
X021000Y010200D01*
X021000Y010125D02*
X021758Y010125D01*
X021752Y010135D02*
X021776Y010094D01*
X021810Y010061D01*
X021851Y010037D01*
X021896Y010025D01*
X022128Y010025D01*
X022128Y010452D01*
X021740Y010452D01*
X021740Y010181D01*
X021752Y010135D01*
X021740Y010284D02*
X021250Y010284D01*
X021250Y010442D02*
X021740Y010442D01*
X021740Y010601D02*
X021250Y010601D01*
X021250Y010759D02*
X021740Y010759D01*
X021788Y010918D02*
X021250Y010918D01*
X021250Y011076D02*
X021460Y011076D01*
X021392Y011235D02*
X021250Y011235D01*
X021250Y011393D02*
X021392Y011393D01*
X021392Y011552D02*
X021250Y011552D01*
X021250Y011710D02*
X021392Y011710D01*
X021392Y011869D02*
X021250Y011869D01*
X021250Y012027D02*
X021392Y012027D01*
X021404Y012186D02*
X021250Y012186D01*
X021250Y012344D02*
X021571Y012344D01*
X021929Y012344D02*
X022071Y012344D01*
X022429Y012344D02*
X022571Y012344D01*
X022929Y012344D02*
X023071Y012344D01*
X023429Y012344D02*
X023571Y012344D01*
X023930Y012503D02*
X021250Y012503D01*
X021250Y012661D02*
X024008Y012661D01*
X024069Y012721D02*
X024069Y012721D01*
X024103Y012755D02*
X024103Y012755D01*
X024167Y012820D02*
X021250Y012820D01*
X021250Y012978D02*
X025263Y012978D01*
X025299Y013137D02*
X025053Y013137D01*
X025072Y013155D02*
X025108Y013243D01*
X025108Y014204D01*
X025072Y014293D01*
X025004Y014360D01*
X024916Y014397D01*
X024584Y014397D01*
X024500Y014362D01*
X024416Y014397D01*
X024084Y014397D01*
X024000Y014362D01*
X023916Y014397D01*
X023584Y014397D01*
X023496Y014360D01*
X023452Y014316D01*
X023438Y014324D01*
X023392Y014337D01*
X023250Y014337D01*
X023108Y014337D01*
X023062Y014324D01*
X023048Y014316D01*
X023004Y014360D01*
X022916Y014397D01*
X022584Y014397D01*
X022500Y014362D01*
X022416Y014397D01*
X022084Y014397D01*
X022000Y014362D01*
X021916Y014397D01*
X021584Y014397D01*
X021496Y014360D01*
X021428Y014293D01*
X021392Y014204D01*
X021392Y013243D01*
X021428Y013155D01*
X021496Y013087D01*
X021584Y013051D01*
X021916Y013051D01*
X022000Y013085D01*
X022084Y013051D01*
X022416Y013051D01*
X022500Y013085D01*
X022584Y013051D01*
X022916Y013051D01*
X023004Y013087D01*
X023048Y013131D01*
X023062Y013123D01*
X023108Y013111D01*
X023250Y013111D01*
X023392Y013111D01*
X023438Y013123D01*
X023452Y013131D01*
X023496Y013087D01*
X023584Y013051D01*
X023916Y013051D01*
X024000Y013085D01*
X024084Y013051D01*
X024416Y013051D01*
X024500Y013085D01*
X024584Y013051D01*
X024916Y013051D01*
X025004Y013087D01*
X025072Y013155D01*
X025108Y013295D02*
X025215Y013295D01*
X025215Y013454D02*
X025108Y013454D01*
X025108Y013612D02*
X025215Y013612D01*
X025215Y013771D02*
X025108Y013771D01*
X025108Y013929D02*
X025235Y013929D01*
X025215Y014088D02*
X025108Y014088D01*
X025091Y014246D02*
X025215Y014246D01*
X025093Y014405D02*
X021250Y014405D01*
X021250Y014563D02*
X024934Y014563D01*
X024822Y014722D02*
X021250Y014722D01*
X021250Y014880D02*
X021594Y014880D01*
X021370Y015039D02*
X021250Y015039D01*
X021250Y014246D02*
X021409Y014246D01*
X021392Y014088D02*
X021250Y014088D01*
X021250Y013929D02*
X021392Y013929D01*
X021392Y013771D02*
X021250Y013771D01*
X021250Y013612D02*
X021392Y013612D01*
X021392Y013454D02*
X021250Y013454D01*
X021250Y013295D02*
X021392Y013295D01*
X021447Y013137D02*
X021250Y013137D01*
X023250Y013137D02*
X023250Y013137D01*
X023250Y013111D02*
X023250Y013724D01*
X023250Y014337D01*
X023250Y013724D01*
X023250Y013724D01*
X023250Y013724D01*
X023250Y013111D01*
X023250Y013295D02*
X023250Y013295D01*
X023250Y013454D02*
X023250Y013454D01*
X023250Y013612D02*
X023250Y013612D01*
X023250Y013771D02*
X023250Y013771D01*
X023250Y013929D02*
X023250Y013929D01*
X023250Y014088D02*
X023250Y014088D01*
X023250Y014246D02*
X023250Y014246D01*
X022630Y015039D02*
X024658Y015039D01*
X024630Y015197D02*
X022780Y015197D01*
X022846Y015356D02*
X024630Y015356D01*
X024630Y015514D02*
X022911Y015514D01*
X022913Y015673D02*
X024630Y015673D01*
X024646Y015831D02*
X022913Y015831D01*
X022868Y015990D02*
X025961Y015990D01*
X026119Y016148D02*
X022803Y016148D01*
X022406Y014880D02*
X024806Y014880D01*
X025126Y014824D02*
X025126Y015450D01*
X025874Y015450D02*
X026303Y015879D01*
X028140Y015879D01*
X028943Y015344D02*
X029107Y015508D01*
X029207Y015749D01*
X029207Y016008D01*
X029119Y016220D01*
X029453Y016220D01*
X029373Y016025D01*
X029373Y015732D01*
X029485Y015462D01*
X029692Y015255D01*
X029962Y015143D01*
X030255Y015143D01*
X030525Y015255D01*
X030601Y015330D01*
X030676Y015255D01*
X030946Y015143D01*
X031239Y015143D01*
X031266Y015154D01*
X031266Y012666D01*
X031239Y012677D01*
X030946Y012677D01*
X030676Y012565D01*
X030601Y012490D01*
X030525Y012565D01*
X030255Y012677D01*
X029962Y012677D01*
X029692Y012565D01*
X029485Y012358D01*
X029373Y012088D01*
X029373Y011795D01*
X029485Y011525D01*
X029692Y011318D01*
X029962Y011206D01*
X030255Y011206D01*
X030525Y011318D01*
X030601Y011393D01*
X030676Y011318D01*
X030946Y011206D01*
X031239Y011206D01*
X031266Y011217D01*
X031266Y002670D01*
X026172Y002670D01*
X026431Y002929D01*
X026521Y003019D01*
X026570Y003136D01*
X026570Y003567D01*
X027094Y004092D01*
X027306Y004092D01*
X027306Y003979D01*
X027234Y003949D01*
X027167Y003881D01*
X027130Y003793D01*
X027130Y003107D01*
X027167Y003019D01*
X027234Y002951D01*
X027322Y002915D01*
X027930Y002915D01*
X028000Y002944D01*
X028070Y002915D01*
X028678Y002915D01*
X028766Y002951D01*
X028833Y003019D01*
X028870Y003107D01*
X028870Y003155D01*
X028980Y003045D01*
X029155Y002973D01*
X029345Y002973D01*
X029465Y003022D01*
X029501Y002934D01*
X029569Y002867D01*
X029657Y002830D01*
X030343Y002830D01*
X030431Y002867D01*
X030499Y002934D01*
X030535Y003022D01*
X030535Y003630D01*
X030506Y003700D01*
X030535Y003770D01*
X030535Y004378D01*
X030499Y004466D01*
X030490Y004475D01*
X030654Y004475D01*
X030699Y004487D01*
X030740Y004511D01*
X030774Y004544D01*
X030798Y004585D01*
X030810Y004631D01*
X030810Y004902D01*
X030422Y004902D01*
X030422Y004998D01*
X030326Y004998D01*
X030326Y005425D01*
X030094Y005425D01*
X030053Y005414D01*
X030018Y005449D01*
X029930Y005485D01*
X029322Y005485D01*
X029253Y005456D01*
X029249Y005466D01*
X029181Y005533D01*
X029093Y005570D01*
X028707Y005570D01*
X028555Y005721D01*
X028438Y005770D01*
X028126Y005770D01*
X028137Y005808D01*
X028137Y005950D01*
X028137Y006092D01*
X028126Y006130D01*
X028438Y006130D01*
X028555Y006179D01*
X028707Y006330D01*
X029093Y006330D01*
X029181Y006367D01*
X029249Y006434D01*
X029253Y006444D01*
X029322Y006415D01*
X029930Y006415D01*
X030018Y006451D01*
X030053Y006486D01*
X030094Y006475D01*
X030326Y006475D01*
X030326Y006902D01*
X030422Y006902D01*
X030422Y006475D01*
X030654Y006475D01*
X030699Y006487D01*
X030740Y006511D01*
X030774Y006544D01*
X030798Y006585D01*
X030810Y006631D01*
X030810Y006902D01*
X030422Y006902D01*
X030422Y006998D01*
X030810Y006998D01*
X030810Y007269D01*
X030798Y007315D01*
X030774Y007356D01*
X030740Y007389D01*
X030699Y007413D01*
X030654Y007425D01*
X030490Y007425D01*
X030499Y007434D01*
X030535Y007522D01*
X030535Y008130D01*
X030506Y008200D01*
X030535Y008270D01*
X030535Y008878D01*
X030499Y008966D01*
X030431Y009033D01*
X030343Y009070D01*
X029957Y009070D01*
X029362Y009665D01*
X029680Y009665D01*
X029768Y009701D01*
X029803Y009736D01*
X029844Y009725D01*
X030076Y009725D01*
X030076Y010152D01*
X030172Y010152D01*
X030172Y009725D01*
X030404Y009725D01*
X030449Y009737D01*
X030490Y009761D01*
X030524Y009794D01*
X030548Y009835D01*
X030560Y009881D01*
X030560Y010152D01*
X030172Y010152D01*
X030172Y010248D01*
X030076Y010248D01*
X030076Y010675D01*
X029844Y010675D01*
X029803Y010664D01*
X029768Y010699D01*
X029680Y010735D01*
X029072Y010735D01*
X028984Y010699D01*
X028917Y010631D01*
X028880Y010543D01*
X028880Y010520D01*
X028507Y010520D01*
X027975Y011051D01*
X027858Y011100D01*
X027603Y011100D01*
X026605Y012097D01*
X026488Y012146D01*
X026279Y012146D01*
X026256Y012200D01*
X026285Y012270D01*
X026285Y012878D01*
X026249Y012966D01*
X026181Y013033D01*
X026093Y013070D01*
X026070Y013070D01*
X026070Y013080D01*
X026093Y013080D01*
X026181Y013117D01*
X026249Y013184D01*
X026285Y013272D01*
X026285Y013880D01*
X026256Y013950D01*
X026285Y014020D01*
X026285Y014628D01*
X026249Y014716D01*
X026181Y014783D01*
X026093Y014820D01*
X025583Y014820D01*
X025471Y014932D01*
X025500Y014944D01*
X025570Y014915D01*
X026178Y014915D01*
X026266Y014951D01*
X026333Y015019D01*
X026370Y015107D01*
X026370Y015493D01*
X026435Y015559D01*
X027152Y015559D01*
X027173Y015508D01*
X027337Y015344D01*
X027274Y015281D01*
X027219Y015205D01*
X027177Y015122D01*
X027148Y015033D01*
X027135Y014952D01*
X028082Y014952D01*
X028082Y014836D01*
X027135Y014836D01*
X027148Y014755D01*
X027177Y014666D01*
X027219Y014583D01*
X027274Y014508D01*
X027340Y014442D01*
X027416Y014387D01*
X027499Y014344D01*
X027525Y014336D01*
X027516Y014327D01*
X027404Y014056D01*
X027404Y013764D01*
X027516Y013493D01*
X027525Y013484D01*
X027499Y013476D01*
X027416Y013433D01*
X027340Y013378D01*
X027274Y013312D01*
X027219Y013237D01*
X027177Y013154D01*
X027148Y013065D01*
X027135Y012984D01*
X028082Y012984D01*
X028082Y012868D01*
X027135Y012868D01*
X027148Y012787D01*
X027177Y012698D01*
X027219Y012615D01*
X027274Y012539D01*
X027337Y012476D01*
X027173Y012312D01*
X027073Y012071D01*
X027073Y011812D01*
X027173Y011571D01*
X027356Y011388D01*
X027597Y011288D01*
X028683Y011288D01*
X028923Y011388D01*
X029107Y011571D01*
X029207Y011812D01*
X029207Y012071D01*
X029107Y012312D01*
X028943Y012476D01*
X029006Y012539D01*
X029061Y012615D01*
X029103Y012698D01*
X029132Y012787D01*
X029145Y012868D01*
X028198Y012868D01*
X028198Y012984D01*
X029145Y012984D01*
X029132Y013065D01*
X029103Y013154D01*
X029061Y013237D01*
X029006Y013312D01*
X028940Y013378D01*
X028864Y013433D01*
X028781Y013476D01*
X028755Y013484D01*
X028764Y013493D01*
X028876Y013764D01*
X028876Y014056D01*
X028764Y014327D01*
X028755Y014336D01*
X028781Y014344D01*
X028864Y014387D01*
X028940Y014442D01*
X029006Y014508D01*
X029061Y014583D01*
X029103Y014666D01*
X029132Y014755D01*
X029145Y014836D01*
X028198Y014836D01*
X028198Y014952D01*
X029145Y014952D01*
X029132Y015033D01*
X029103Y015122D01*
X029061Y015205D01*
X029006Y015281D01*
X028943Y015344D01*
X028954Y015356D02*
X029591Y015356D01*
X029463Y015514D02*
X029110Y015514D01*
X029175Y015673D02*
X029397Y015673D01*
X029373Y015831D02*
X029207Y015831D01*
X029207Y015990D02*
X029373Y015990D01*
X029424Y016148D02*
X029149Y016148D01*
X027326Y015356D02*
X026370Y015356D01*
X026370Y015197D02*
X027215Y015197D01*
X027150Y015039D02*
X026342Y015039D01*
X026243Y014722D02*
X027159Y014722D01*
X027234Y014563D02*
X026285Y014563D01*
X026285Y014405D02*
X027391Y014405D01*
X027483Y014246D02*
X026285Y014246D01*
X026285Y014088D02*
X027417Y014088D01*
X027404Y013929D02*
X026265Y013929D01*
X026285Y013771D02*
X027404Y013771D01*
X027467Y013612D02*
X026285Y013612D01*
X026285Y013454D02*
X027455Y013454D01*
X027261Y013295D02*
X026285Y013295D01*
X026201Y013137D02*
X027171Y013137D01*
X027143Y012820D02*
X026285Y012820D01*
X026285Y012661D02*
X027196Y012661D01*
X027311Y012503D02*
X026285Y012503D01*
X026285Y012344D02*
X027205Y012344D01*
X027120Y012186D02*
X026262Y012186D01*
X026676Y012027D02*
X027073Y012027D01*
X027073Y011869D02*
X026834Y011869D01*
X026993Y011710D02*
X027115Y011710D01*
X027151Y011552D02*
X027193Y011552D01*
X027310Y011393D02*
X027351Y011393D01*
X027468Y011235D02*
X029892Y011235D01*
X029616Y011393D02*
X028929Y011393D01*
X029087Y011552D02*
X029474Y011552D01*
X029408Y011710D02*
X029165Y011710D01*
X029207Y011869D02*
X029373Y011869D01*
X029373Y012027D02*
X029207Y012027D01*
X029160Y012186D02*
X029413Y012186D01*
X029479Y012344D02*
X029075Y012344D01*
X028969Y012503D02*
X029629Y012503D01*
X029923Y012661D02*
X029084Y012661D01*
X029137Y012820D02*
X031266Y012820D01*
X031266Y012978D02*
X030280Y012978D01*
X030301Y012989D02*
X030377Y013044D01*
X030443Y013110D01*
X030498Y013186D01*
X030540Y013269D01*
X030569Y013358D01*
X030584Y013450D01*
X030584Y013852D01*
X030048Y013852D01*
X030048Y012905D01*
X030129Y012918D01*
X030218Y012947D01*
X030301Y012989D01*
X030462Y013137D02*
X031266Y013137D01*
X031266Y013295D02*
X030549Y013295D01*
X030584Y013454D02*
X031266Y013454D01*
X031266Y013612D02*
X030584Y013612D01*
X030584Y013771D02*
X031266Y013771D01*
X031266Y013929D02*
X030048Y013929D01*
X030048Y013968D02*
X030584Y013968D01*
X030584Y014370D01*
X030569Y014462D01*
X030540Y014551D01*
X030498Y014634D01*
X030443Y014710D01*
X030377Y014776D01*
X030301Y014831D01*
X030218Y014873D01*
X030129Y014902D01*
X030048Y014915D01*
X030048Y013968D01*
X029933Y013968D01*
X029933Y014915D01*
X029851Y014902D01*
X029763Y014873D01*
X029679Y014831D01*
X029604Y014776D01*
X029538Y014710D01*
X029483Y014634D01*
X029440Y014551D01*
X029412Y014462D01*
X029397Y014370D01*
X029397Y013968D01*
X029933Y013968D01*
X029933Y013852D01*
X030048Y013852D01*
X030048Y013968D01*
X030048Y014088D02*
X029933Y014088D01*
X029933Y014246D02*
X030048Y014246D01*
X030048Y014405D02*
X029933Y014405D01*
X029933Y014563D02*
X030048Y014563D01*
X030048Y014722D02*
X029933Y014722D01*
X029933Y014880D02*
X030048Y014880D01*
X030197Y014880D02*
X031266Y014880D01*
X031266Y014722D02*
X030431Y014722D01*
X030534Y014563D02*
X031266Y014563D01*
X031266Y014405D02*
X030578Y014405D01*
X030584Y014246D02*
X031266Y014246D01*
X031266Y014088D02*
X030584Y014088D01*
X030048Y013771D02*
X029933Y013771D01*
X029933Y013852D02*
X029933Y012905D01*
X029851Y012918D01*
X029763Y012947D01*
X029679Y012989D01*
X029604Y013044D01*
X029538Y013110D01*
X029483Y013186D01*
X029440Y013269D01*
X029412Y013358D01*
X029397Y013450D01*
X029397Y013852D01*
X029933Y013852D01*
X029933Y013929D02*
X028876Y013929D01*
X028876Y013771D02*
X029397Y013771D01*
X029397Y013612D02*
X028813Y013612D01*
X028825Y013454D02*
X029397Y013454D01*
X029432Y013295D02*
X029019Y013295D01*
X029109Y013137D02*
X029519Y013137D01*
X029701Y012978D02*
X028198Y012978D01*
X028082Y012978D02*
X026237Y012978D01*
X025750Y012574D02*
X024374Y012574D01*
X024250Y012450D01*
X024250Y011676D01*
X023750Y011676D02*
X023750Y011070D01*
X023990Y010830D01*
X024370Y010830D01*
X024624Y010576D01*
X024624Y010100D01*
X025626Y010100D01*
X026015Y010100D02*
X026018Y010101D01*
X026053Y010136D01*
X026094Y010125D01*
X026326Y010125D01*
X026422Y010125D01*
X026654Y010125D01*
X026699Y010137D01*
X026740Y010161D01*
X026774Y010194D01*
X026798Y010235D01*
X026810Y010281D01*
X026810Y010552D01*
X026422Y010552D01*
X026422Y010125D01*
X026422Y010075D02*
X026422Y009648D01*
X026326Y009648D01*
X026326Y010075D01*
X026094Y010075D01*
X026053Y010064D01*
X026018Y010099D01*
X026015Y010100D01*
X026042Y010125D02*
X026093Y010125D01*
X026326Y010125D02*
X026326Y010552D01*
X026422Y010552D01*
X026422Y010648D01*
X026326Y010648D01*
X026326Y011075D01*
X026094Y011075D01*
X026053Y011064D01*
X026018Y011099D01*
X025930Y011135D01*
X025322Y011135D01*
X025234Y011099D01*
X025167Y011031D01*
X025130Y010943D01*
X025130Y010420D01*
X025120Y010420D01*
X025120Y010443D01*
X025083Y010531D01*
X025016Y010599D01*
X024944Y010628D01*
X024944Y010640D01*
X024895Y010757D01*
X024649Y011003D01*
X024916Y011003D01*
X025004Y011040D01*
X025072Y011107D01*
X025108Y011196D01*
X025108Y011506D01*
X025221Y011506D01*
X025251Y011434D01*
X025319Y011367D01*
X025407Y011330D01*
X026093Y011330D01*
X026181Y011367D01*
X026249Y011434D01*
X026279Y011506D01*
X026291Y011506D01*
X027199Y010599D01*
X027289Y010509D01*
X027406Y010460D01*
X027661Y010460D01*
X028193Y009929D01*
X029465Y008657D01*
X029465Y008270D01*
X029494Y008200D01*
X029465Y008130D01*
X029465Y008106D01*
X029445Y008097D01*
X029268Y007920D01*
X029249Y007966D01*
X029181Y008033D01*
X029093Y008070D01*
X029070Y008070D01*
X029070Y008138D01*
X029021Y008255D01*
X028870Y008407D01*
X028870Y008793D01*
X028833Y008881D01*
X028766Y008949D01*
X028678Y008985D01*
X028070Y008985D01*
X028000Y008956D01*
X027930Y008985D01*
X027322Y008985D01*
X027234Y008949D01*
X027167Y008881D01*
X027130Y008793D01*
X027130Y008107D01*
X027167Y008019D01*
X027234Y007951D01*
X027306Y007921D01*
X027306Y007808D01*
X027043Y007808D01*
X026955Y007772D01*
X026887Y007704D01*
X026851Y007616D01*
X026851Y007284D01*
X026856Y007270D01*
X026855Y007270D01*
X026770Y007355D01*
X026595Y007427D01*
X026405Y007427D01*
X026230Y007355D01*
X026143Y007268D01*
X026149Y007284D01*
X026149Y007397D01*
X026475Y007723D01*
X026595Y007723D01*
X026770Y007795D01*
X026905Y007930D01*
X026977Y008105D01*
X026977Y008295D01*
X026905Y008470D01*
X026770Y008605D01*
X026595Y008677D01*
X026405Y008677D01*
X026230Y008605D01*
X026095Y008470D01*
X026023Y008295D01*
X026023Y008175D01*
X025694Y007847D01*
X025694Y007921D01*
X025766Y007951D01*
X025833Y008019D01*
X025870Y008107D01*
X025870Y008793D01*
X025833Y008881D01*
X025766Y008949D01*
X025678Y008985D01*
X025070Y008985D01*
X025000Y008956D01*
X024930Y008985D01*
X024322Y008985D01*
X024234Y008949D01*
X024167Y008881D01*
X024130Y008793D01*
X024130Y008407D01*
X023979Y008255D01*
X023978Y008253D01*
X023938Y008270D01*
X023870Y008270D01*
X023870Y008293D01*
X023833Y008381D01*
X023766Y008449D01*
X023678Y008485D01*
X023070Y008485D01*
X023000Y008456D01*
X022930Y008485D01*
X022516Y008485D01*
X023117Y009086D01*
X023212Y009181D01*
X023264Y009306D01*
X023264Y009780D01*
X023380Y009780D01*
X023380Y009757D01*
X023417Y009669D01*
X023484Y009601D01*
X023572Y009565D01*
X024180Y009565D01*
X024250Y009594D01*
X024320Y009565D01*
X024928Y009565D01*
X025016Y009601D01*
X025083Y009669D01*
X025120Y009757D01*
X025120Y009780D01*
X025130Y009780D01*
X025130Y009257D01*
X025167Y009169D01*
X025234Y009101D01*
X025322Y009065D01*
X025930Y009065D01*
X026018Y009101D01*
X026053Y009136D01*
X026094Y009125D01*
X026326Y009125D01*
X026326Y009552D01*
X026422Y009552D01*
X026422Y009125D01*
X026654Y009125D01*
X026699Y009137D01*
X026740Y009161D01*
X026774Y009194D01*
X026798Y009235D01*
X026810Y009281D01*
X026810Y009552D01*
X026422Y009552D01*
X026422Y009648D01*
X026810Y009648D01*
X026810Y009919D01*
X026798Y009965D01*
X026774Y010006D01*
X026740Y010039D01*
X026699Y010063D01*
X026654Y010075D01*
X026422Y010075D01*
X026422Y009967D02*
X026326Y009967D01*
X026326Y009808D02*
X026422Y009808D01*
X026422Y009650D02*
X026326Y009650D01*
X026326Y009491D02*
X026422Y009491D01*
X026422Y009333D02*
X026326Y009333D01*
X026326Y009174D02*
X026422Y009174D01*
X026754Y009174D02*
X028947Y009174D01*
X028789Y009333D02*
X026810Y009333D01*
X026810Y009491D02*
X028630Y009491D01*
X028472Y009650D02*
X026810Y009650D01*
X026810Y009808D02*
X028313Y009808D01*
X028155Y009967D02*
X026797Y009967D01*
X026655Y010125D02*
X027996Y010125D01*
X027838Y010284D02*
X026810Y010284D01*
X026810Y010442D02*
X027679Y010442D01*
X027794Y010780D02*
X027470Y010780D01*
X026424Y011826D01*
X025750Y011826D01*
X024900Y011826D01*
X024750Y011676D01*
X025108Y011393D02*
X025292Y011393D01*
X025108Y011235D02*
X026563Y011235D01*
X026654Y011075D02*
X026422Y011075D01*
X026422Y010648D01*
X026810Y010648D01*
X026810Y010919D01*
X026798Y010965D01*
X026774Y011006D01*
X026740Y011039D01*
X026699Y011063D01*
X026654Y011075D01*
X026721Y011076D02*
X026041Y011076D01*
X026326Y010918D02*
X026422Y010918D01*
X026422Y010759D02*
X026326Y010759D01*
X026422Y010601D02*
X027197Y010601D01*
X027038Y010759D02*
X026810Y010759D01*
X026810Y010918D02*
X026880Y010918D01*
X026422Y010442D02*
X026326Y010442D01*
X026326Y010284D02*
X026422Y010284D01*
X025130Y010442D02*
X025120Y010442D01*
X025130Y010601D02*
X025012Y010601D01*
X024894Y010759D02*
X025130Y010759D01*
X025130Y010918D02*
X024735Y010918D01*
X025040Y011076D02*
X025211Y011076D01*
X026208Y011393D02*
X026404Y011393D01*
X025850Y011676D02*
X025750Y011826D01*
X025750Y012574D02*
X025750Y013576D01*
X025750Y014324D02*
X025626Y014324D01*
X025126Y014824D01*
X025523Y014880D02*
X028082Y014880D01*
X028198Y014880D02*
X029783Y014880D01*
X029549Y014722D02*
X029121Y014722D01*
X029046Y014563D02*
X029447Y014563D01*
X029402Y014405D02*
X028889Y014405D01*
X028797Y014246D02*
X029397Y014246D01*
X029397Y014088D02*
X028863Y014088D01*
X029933Y013612D02*
X030048Y013612D01*
X030048Y013454D02*
X029933Y013454D01*
X029933Y013295D02*
X030048Y013295D01*
X030048Y013137D02*
X029933Y013137D01*
X029933Y012978D02*
X030048Y012978D01*
X030294Y012661D02*
X030907Y012661D01*
X030613Y012503D02*
X030588Y012503D01*
X030325Y011235D02*
X030877Y011235D01*
X031266Y011076D02*
X027916Y011076D01*
X028109Y010918D02*
X031266Y010918D01*
X031266Y010759D02*
X028268Y010759D01*
X028426Y010601D02*
X028904Y010601D01*
X029376Y010200D02*
X028374Y010200D01*
X027794Y010780D01*
X028374Y010200D02*
X030000Y008574D01*
X030535Y008540D02*
X031266Y008540D01*
X031266Y008382D02*
X030535Y008382D01*
X030516Y008223D02*
X031266Y008223D01*
X031266Y008065D02*
X030535Y008065D01*
X030535Y007906D02*
X031266Y007906D01*
X031266Y007748D02*
X030535Y007748D01*
X030535Y007589D02*
X031266Y007589D01*
X031266Y007431D02*
X030495Y007431D01*
X030809Y007272D02*
X031266Y007272D01*
X031266Y007114D02*
X030810Y007114D01*
X030422Y006955D02*
X031266Y006955D01*
X031266Y006797D02*
X030810Y006797D01*
X030810Y006638D02*
X031266Y006638D01*
X031266Y006480D02*
X030671Y006480D01*
X030422Y006480D02*
X030326Y006480D01*
X030326Y006638D02*
X030422Y006638D01*
X030422Y006797D02*
X030326Y006797D01*
X030077Y006480D02*
X030046Y006480D01*
X029626Y006950D02*
X029250Y006950D01*
X029126Y006826D01*
X028750Y006826D01*
X028374Y006450D01*
X027524Y006450D01*
X026931Y006152D02*
X026923Y006138D01*
X026911Y006092D01*
X026911Y005950D01*
X026911Y005808D01*
X026923Y005762D01*
X026931Y005748D01*
X026887Y005704D01*
X026851Y005616D01*
X026851Y005284D01*
X026857Y005268D01*
X026770Y005355D01*
X026595Y005427D01*
X026405Y005427D01*
X026230Y005355D01*
X026145Y005270D01*
X026144Y005270D01*
X026149Y005284D01*
X026149Y005616D01*
X026115Y005700D01*
X026149Y005784D01*
X026149Y006116D01*
X026115Y006200D01*
X026149Y006284D01*
X026149Y006616D01*
X026143Y006632D01*
X026230Y006545D01*
X026405Y006473D01*
X026595Y006473D01*
X026770Y006545D01*
X026855Y006630D01*
X026856Y006630D01*
X026851Y006616D01*
X026851Y006284D01*
X026887Y006196D01*
X026931Y006152D01*
X026921Y006163D02*
X026130Y006163D01*
X026149Y006321D02*
X026851Y006321D01*
X026851Y006480D02*
X026612Y006480D01*
X026388Y006480D02*
X026149Y006480D01*
X026500Y006950D02*
X027524Y006950D01*
X027524Y007450D01*
X027626Y007552D01*
X027626Y008450D01*
X027130Y008382D02*
X026942Y008382D01*
X026977Y008223D02*
X027130Y008223D01*
X027148Y008065D02*
X026961Y008065D01*
X026881Y007906D02*
X027306Y007906D01*
X026931Y007748D02*
X026655Y007748D01*
X026851Y007589D02*
X026342Y007589D01*
X026183Y007431D02*
X026851Y007431D01*
X026853Y007272D02*
X026856Y007272D01*
X026147Y007272D02*
X026144Y007272D01*
X025750Y007450D02*
X025476Y007450D01*
X025374Y007552D01*
X025374Y008450D01*
X025870Y008382D02*
X026058Y008382D01*
X026023Y008223D02*
X025870Y008223D01*
X025852Y008065D02*
X025912Y008065D01*
X025753Y007906D02*
X025694Y007906D01*
X025750Y007450D02*
X026500Y008200D01*
X026835Y008540D02*
X027130Y008540D01*
X027130Y008699D02*
X025870Y008699D01*
X025870Y008540D02*
X026165Y008540D01*
X025843Y008857D02*
X027157Y008857D01*
X028374Y008450D02*
X028750Y008074D01*
X028750Y007574D01*
X029374Y007574D01*
X029626Y007826D01*
X030000Y007826D01*
X029412Y008065D02*
X029106Y008065D01*
X029035Y008223D02*
X029484Y008223D01*
X029465Y008382D02*
X028895Y008382D01*
X028870Y008540D02*
X029465Y008540D01*
X029423Y008699D02*
X028870Y008699D01*
X028843Y008857D02*
X029264Y008857D01*
X029106Y009016D02*
X023046Y009016D01*
X023117Y009086D02*
X023117Y009086D01*
X023205Y009174D02*
X025164Y009174D01*
X025130Y009333D02*
X023264Y009333D01*
X023264Y009491D02*
X025130Y009491D01*
X025130Y009650D02*
X025064Y009650D01*
X024157Y008857D02*
X022888Y008857D01*
X022729Y008699D02*
X024130Y008699D01*
X024130Y008540D02*
X022571Y008540D01*
X021926Y008857D02*
X021877Y008857D01*
X021880Y008859D02*
X021931Y008910D01*
X021973Y008969D01*
X022006Y009033D01*
X022029Y009102D01*
X022040Y009174D01*
X022243Y009174D01*
X022040Y009174D02*
X022040Y009210D01*
X022040Y009246D01*
X022029Y009318D01*
X022006Y009387D01*
X021973Y009451D01*
X021931Y009510D01*
X021880Y009561D01*
X021821Y009603D01*
X021757Y009636D01*
X021688Y009659D01*
X021616Y009670D01*
X021580Y009670D01*
X021580Y009210D01*
X022040Y009210D01*
X021580Y009210D01*
X021580Y009210D01*
X021580Y009210D01*
X021580Y008750D01*
X021616Y008750D01*
X021688Y008761D01*
X021757Y008784D01*
X021821Y008817D01*
X021880Y008859D01*
X021997Y009016D02*
X022085Y009016D01*
X022024Y009333D02*
X022402Y009333D01*
X022560Y009491D02*
X021944Y009491D01*
X021716Y009650D02*
X022584Y009650D01*
X022584Y009808D02*
X021000Y009808D01*
X021000Y009650D02*
X021444Y009650D01*
X021472Y009659D02*
X021403Y009636D01*
X021339Y009603D01*
X021280Y009561D01*
X021229Y009510D01*
X021187Y009451D01*
X021154Y009387D01*
X021131Y009318D01*
X021120Y009246D01*
X021120Y009210D01*
X021580Y009210D01*
X021580Y009210D01*
X021580Y009210D01*
X021580Y009670D01*
X021544Y009670D01*
X021472Y009659D01*
X021580Y009650D02*
X021580Y009650D01*
X021580Y009491D02*
X021580Y009491D01*
X021580Y009333D02*
X021580Y009333D01*
X021580Y009210D02*
X021120Y009210D01*
X021120Y009174D01*
X021000Y009174D01*
X021120Y009174D02*
X021131Y009102D01*
X021154Y009033D01*
X021187Y008969D01*
X021229Y008910D01*
X021280Y008859D01*
X021339Y008817D01*
X021403Y008784D01*
X021472Y008761D01*
X021544Y008750D01*
X021580Y008750D01*
X021580Y009210D01*
X021580Y009174D02*
X021580Y009174D01*
X021580Y009016D02*
X021580Y009016D01*
X021580Y008857D02*
X021580Y008857D01*
X021768Y008699D02*
X021000Y008699D01*
X021000Y008857D02*
X021283Y008857D01*
X021163Y009016D02*
X021000Y009016D01*
X021000Y009333D02*
X021136Y009333D01*
X021216Y009491D02*
X021000Y009491D01*
X021000Y009967D02*
X022584Y009967D01*
X022224Y010125D02*
X022128Y010125D01*
X022128Y010284D02*
X022224Y010284D01*
X022224Y010442D02*
X022128Y010442D01*
X022128Y010601D02*
X022224Y010601D01*
X022224Y010759D02*
X022128Y010759D01*
X022128Y010918D02*
X022224Y010918D01*
X022924Y010500D02*
X023324Y010100D01*
X023876Y010100D01*
X023436Y009650D02*
X023264Y009650D01*
X024626Y008450D02*
X024250Y008074D01*
X024250Y007574D01*
X023874Y007950D01*
X023374Y007950D01*
X023833Y008382D02*
X024105Y008382D01*
X024626Y008326D02*
X024626Y008450D01*
X024248Y007576D02*
X024250Y007574D01*
X024250Y006826D02*
X023874Y006826D01*
X023750Y006950D01*
X023374Y006950D01*
X023065Y006417D02*
X022982Y006451D01*
X022947Y006486D01*
X022906Y006475D01*
X022674Y006475D01*
X022674Y006902D01*
X022578Y006902D01*
X022578Y006475D01*
X022346Y006475D01*
X022301Y006487D01*
X022260Y006511D01*
X022227Y006543D01*
X022227Y006355D01*
X022155Y006180D01*
X022020Y006045D01*
X021845Y005973D01*
X021655Y005973D01*
X021480Y006045D01*
X021345Y006180D01*
X021340Y006192D01*
X021340Y005832D01*
X021717Y005832D01*
X021805Y005795D01*
X021846Y005754D01*
X021932Y005790D01*
X022940Y005790D01*
X022940Y005902D01*
X023328Y005902D01*
X023328Y005998D01*
X022940Y005998D01*
X022940Y006269D01*
X022952Y006315D01*
X022976Y006356D01*
X023010Y006389D01*
X023051Y006413D01*
X023065Y006417D01*
X022954Y006480D02*
X022923Y006480D01*
X022956Y006321D02*
X022213Y006321D01*
X022227Y006480D02*
X022329Y006480D01*
X022190Y006635D02*
X022155Y006720D01*
X022070Y006805D01*
X022070Y007317D01*
X022219Y007466D01*
X022234Y007451D01*
X022316Y007417D01*
X022301Y007413D01*
X022260Y007389D01*
X022226Y007356D01*
X022202Y007315D01*
X022190Y007269D01*
X022190Y006998D01*
X022578Y006998D01*
X022578Y006902D01*
X022190Y006902D01*
X022190Y006635D01*
X022189Y006638D02*
X022190Y006638D01*
X022190Y006797D02*
X022079Y006797D01*
X022070Y006955D02*
X022578Y006955D01*
X022578Y006797D02*
X022674Y006797D01*
X022674Y006638D02*
X022578Y006638D01*
X022578Y006480D02*
X022674Y006480D01*
X022940Y006163D02*
X022138Y006163D01*
X021921Y006004D02*
X022940Y006004D01*
X022940Y005846D02*
X021340Y005846D01*
X021340Y006004D02*
X021579Y006004D01*
X021362Y006163D02*
X021340Y006163D01*
X021750Y006450D02*
X021750Y007450D01*
X022250Y007950D01*
X022626Y007950D01*
X022284Y007431D02*
X022183Y007431D01*
X022191Y007272D02*
X022070Y007272D01*
X022070Y007114D02*
X022190Y007114D01*
X020817Y007748D02*
X020479Y007748D01*
X020520Y007906D02*
X020975Y007906D01*
X021134Y008065D02*
X020515Y008065D01*
X020450Y008223D02*
X021292Y008223D01*
X021451Y008382D02*
X020304Y008382D01*
X019863Y008540D02*
X021609Y008540D01*
X020807Y007738D02*
X020807Y007738D01*
X020690Y007589D02*
X020374Y007589D01*
X020452Y007431D02*
X020660Y007431D01*
X020660Y007272D02*
X020518Y007272D01*
X020520Y007114D02*
X020660Y007114D01*
X020660Y006955D02*
X020477Y006955D01*
X020369Y006797D02*
X020660Y006797D01*
X020660Y006638D02*
X020454Y006638D01*
X020520Y006480D02*
X020660Y006480D01*
X020660Y006321D02*
X020520Y006321D01*
X020475Y006163D02*
X020660Y006163D01*
X020660Y006004D02*
X020364Y006004D01*
X020660Y005846D02*
X018135Y005846D01*
X018135Y006004D02*
X019636Y006004D01*
X019525Y006163D02*
X018108Y006163D01*
X017734Y006321D02*
X019480Y006321D01*
X019443Y006480D02*
X018121Y006480D01*
X018163Y006638D02*
X019285Y006638D01*
X019126Y006797D02*
X018163Y006797D01*
X018163Y006955D02*
X018968Y006955D01*
X018850Y007114D02*
X018163Y007114D01*
X018158Y007272D02*
X018830Y007272D01*
X019150Y007225D02*
X020000Y006375D01*
X020110Y005687D02*
X018135Y005687D01*
X018135Y005529D02*
X018318Y005529D01*
X018231Y005370D02*
X018067Y005370D01*
X018075Y005212D02*
X018231Y005212D01*
X018231Y005053D02*
X017648Y005053D01*
X017648Y004998D02*
X018075Y004998D01*
X018075Y004766D01*
X018063Y004721D01*
X018039Y004680D01*
X018006Y004646D01*
X017965Y004622D01*
X017919Y004610D01*
X017648Y004610D01*
X017648Y004998D01*
X017648Y004895D02*
X017552Y004895D01*
X017552Y005053D02*
X017035Y005053D01*
X017035Y004895D02*
X017125Y004895D01*
X017133Y004736D02*
X017021Y004736D01*
X016975Y004578D02*
X018231Y004578D01*
X018231Y004736D02*
X018067Y004736D01*
X018075Y004895D02*
X018231Y004895D01*
X017648Y004736D02*
X017552Y004736D01*
X016975Y004419D02*
X018288Y004419D01*
X018130Y004261D02*
X016975Y004261D01*
X016975Y004102D02*
X017971Y004102D01*
X018933Y004102D02*
X020091Y004102D01*
X020197Y004261D02*
X019091Y004261D01*
X019974Y004419D02*
X022204Y004419D01*
X022207Y004578D02*
X020049Y004578D01*
X020049Y004736D02*
X020116Y004736D01*
X020091Y004895D02*
X020049Y004895D01*
X020049Y005053D02*
X020091Y005053D01*
X020091Y005212D02*
X020049Y005212D01*
X020049Y005370D02*
X020091Y005370D01*
X020091Y005529D02*
X019962Y005529D01*
X021909Y004895D02*
X022190Y004895D01*
X022190Y005053D02*
X022084Y005053D01*
X022190Y004736D02*
X021884Y004736D01*
X021803Y004261D02*
X022130Y004261D01*
X022130Y004102D02*
X021909Y004102D01*
X021909Y003944D02*
X022130Y003944D01*
X022130Y003785D02*
X021909Y003785D01*
X021909Y003627D02*
X022130Y003627D01*
X022217Y003468D02*
X021909Y003468D01*
X021909Y003310D02*
X022438Y003310D01*
X022596Y003151D02*
X021851Y003151D01*
X022626Y003574D02*
X022626Y003950D01*
X022626Y003574D02*
X023360Y002840D01*
X025890Y002840D01*
X026250Y003200D01*
X026250Y003700D01*
X027000Y004450D01*
X027524Y004450D01*
X027626Y004348D01*
X027626Y003450D01*
X027130Y003468D02*
X026570Y003468D01*
X026570Y003310D02*
X027130Y003310D01*
X027130Y003151D02*
X026570Y003151D01*
X026495Y002993D02*
X027193Y002993D01*
X026337Y002834D02*
X029648Y002834D01*
X029477Y002993D02*
X029393Y002993D01*
X029107Y002993D02*
X028807Y002993D01*
X028870Y003151D02*
X028874Y003151D01*
X029250Y003450D02*
X029876Y003450D01*
X030000Y003326D01*
X030535Y003310D02*
X031266Y003310D01*
X031266Y003468D02*
X030535Y003468D01*
X030535Y003627D02*
X031266Y003627D01*
X031266Y003785D02*
X030535Y003785D01*
X030535Y003944D02*
X031266Y003944D01*
X031266Y004102D02*
X030535Y004102D01*
X030535Y004261D02*
X031266Y004261D01*
X031266Y004419D02*
X030518Y004419D01*
X030793Y004578D02*
X031266Y004578D01*
X031266Y004736D02*
X030810Y004736D01*
X030810Y004895D02*
X031266Y004895D01*
X031266Y005053D02*
X030810Y005053D01*
X030810Y004998D02*
X030422Y004998D01*
X030422Y005425D01*
X030654Y005425D01*
X030699Y005413D01*
X030740Y005389D01*
X030774Y005356D01*
X030798Y005315D01*
X030810Y005269D01*
X030810Y004998D01*
X030422Y005053D02*
X030326Y005053D01*
X030326Y005212D02*
X030422Y005212D01*
X030422Y005370D02*
X030326Y005370D01*
X030760Y005370D02*
X031266Y005370D01*
X031266Y005212D02*
X030810Y005212D01*
X031266Y005529D02*
X029186Y005529D01*
X029126Y005074D02*
X028750Y005074D01*
X028374Y005450D01*
X027524Y005450D01*
X026851Y005529D02*
X026149Y005529D01*
X026149Y005370D02*
X026266Y005370D01*
X026734Y005370D02*
X026851Y005370D01*
X026880Y005687D02*
X026120Y005687D01*
X026149Y005846D02*
X026911Y005846D01*
X026911Y005950D02*
X027524Y005950D01*
X028137Y005950D01*
X027524Y005950D01*
X027524Y005950D01*
X027524Y005950D01*
X026911Y005950D01*
X026911Y006004D02*
X026149Y006004D01*
X025476Y006450D02*
X024626Y006450D01*
X024250Y006826D01*
X025476Y006950D02*
X025476Y007450D01*
X028137Y006004D02*
X031266Y006004D01*
X031266Y005846D02*
X028137Y005846D01*
X028590Y005687D02*
X031266Y005687D01*
X031266Y006163D02*
X028516Y006163D01*
X028698Y006321D02*
X031266Y006321D01*
X029250Y004950D02*
X029126Y005074D01*
X029250Y004950D02*
X029626Y004950D01*
X029124Y004326D02*
X028750Y004326D01*
X028750Y003826D01*
X028374Y003450D01*
X029124Y004326D02*
X029376Y004074D01*
X030000Y004074D01*
X030535Y003151D02*
X031266Y003151D01*
X031266Y002993D02*
X030523Y002993D01*
X030352Y002834D02*
X031266Y002834D01*
X031266Y002676D02*
X026178Y002676D01*
X025374Y003450D02*
X025374Y004348D01*
X025476Y004450D01*
X025476Y004950D01*
X026500Y004950D01*
X027524Y004950D02*
X027524Y004450D01*
X027229Y003944D02*
X026946Y003944D01*
X026788Y003785D02*
X027130Y003785D01*
X027130Y003627D02*
X026629Y003627D01*
X024626Y003450D02*
X024250Y003826D01*
X024250Y004326D01*
X023874Y003950D01*
X023374Y003950D01*
X024248Y004324D02*
X024250Y004326D01*
X023750Y004950D02*
X023374Y004950D01*
X023750Y004950D02*
X023874Y005074D01*
X024250Y005074D01*
X024626Y005450D01*
X025476Y005450D01*
X022755Y002993D02*
X020042Y002993D01*
X019895Y002834D02*
X022913Y002834D01*
X023072Y002676D02*
X015900Y002676D01*
X015080Y004820D02*
X015080Y005530D01*
X015620Y006070D01*
X015620Y006917D01*
X015305Y006917D02*
X015305Y006255D01*
X014293Y005243D01*
X014293Y004820D01*
X013505Y004820D02*
X013505Y004955D01*
X014990Y006440D01*
X014990Y006917D01*
X014675Y006917D02*
X014675Y006625D01*
X012870Y004820D01*
X012718Y004820D01*
X016275Y005846D02*
X017065Y005846D01*
X017065Y006004D02*
X016275Y006004D01*
X016275Y006163D02*
X016437Y006163D01*
X016278Y006321D02*
X016275Y006321D01*
X016368Y005687D02*
X017065Y005687D01*
X017065Y005529D02*
X016936Y005529D01*
X017035Y005370D02*
X017133Y005370D01*
X017125Y005212D02*
X017035Y005212D01*
X017825Y006835D02*
X017825Y006917D01*
X019150Y007225D02*
X019150Y007810D01*
X019020Y007940D01*
X018533Y007940D01*
X018533Y008255D02*
X019195Y008255D01*
X019500Y007950D01*
X019500Y007663D01*
X020000Y007163D01*
X020000Y007950D02*
X019380Y008570D01*
X018533Y008570D01*
X029377Y009650D02*
X031266Y009650D01*
X031266Y009808D02*
X030532Y009808D01*
X030560Y009967D02*
X031266Y009967D01*
X031266Y010125D02*
X030560Y010125D01*
X030560Y010248D02*
X030172Y010248D01*
X030172Y010675D01*
X030404Y010675D01*
X030449Y010663D01*
X030490Y010639D01*
X030524Y010606D01*
X030548Y010565D01*
X030560Y010519D01*
X030560Y010248D01*
X030560Y010284D02*
X031266Y010284D01*
X031266Y010442D02*
X030560Y010442D01*
X030527Y010601D02*
X031266Y010601D01*
X030172Y010601D02*
X030076Y010601D01*
X030076Y010442D02*
X030172Y010442D01*
X030172Y010284D02*
X030076Y010284D01*
X030076Y010125D02*
X030172Y010125D01*
X030172Y009967D02*
X030076Y009967D01*
X030076Y009808D02*
X030172Y009808D01*
X029694Y009333D02*
X031266Y009333D01*
X031266Y009491D02*
X029536Y009491D01*
X029853Y009174D02*
X031266Y009174D01*
X031266Y009016D02*
X030449Y009016D01*
X030535Y008857D02*
X031266Y008857D01*
X031266Y008699D02*
X030535Y008699D01*
X031266Y015039D02*
X029130Y015039D01*
X029065Y015197D02*
X029831Y015197D01*
X030386Y015197D02*
X030815Y015197D01*
X027170Y015514D02*
X026391Y015514D01*
D33*
X007780Y006450D02*
X007376Y006046D01*
X007376Y005450D01*
X007376Y005060D01*
X006266Y003950D01*
X006200Y004016D02*
X006200Y005917D01*
X004500Y006700D02*
X005783Y007983D01*
X006200Y007983D01*
X004500Y006700D02*
X004500Y004950D01*
X005750Y010200D02*
X004750Y011200D01*
X004500Y011200D01*
X004500Y012200D02*
X006067Y012200D01*
X004750Y013200D02*
X004500Y013200D01*
X004750Y013200D02*
X005750Y014200D01*
X006067Y014200D01*
X006067Y010200D02*
X005750Y010200D01*
D34*
X004500Y010200D02*
X004500Y007650D01*
X003900Y007050D01*
X003900Y005550D01*
X004500Y004950D01*
M02*
